<svg width="15" height="15" viewBox="0 0 15 15" fill="none" xmlns="http://www.w3.org/2000/svg">
<path d="M13.5268 6.8637H3.73161L9.59433 1.77441C9.68808 1.69238 9.63116 1.54004 9.50728 1.54004H8.02569C7.9604 1.54004 7.89846 1.56348 7.84991 1.60533L1.52346 7.09473C1.46552 7.14495 1.41905 7.20705 1.3872 7.2768C1.35535 7.34656 1.33887 7.42234 1.33887 7.49902C1.33887 7.57571 1.35535 7.65149 1.3872 7.72125C1.41905 7.791 1.46552 7.85309 1.52346 7.90332L7.88674 13.4262C7.91185 13.448 7.94199 13.4597 7.97379 13.4597H9.5056C9.62949 13.4597 9.68641 13.3057 9.59266 13.2253L3.73161 8.13602H13.5268C13.6005 8.13602 13.6607 8.07575 13.6607 8.00209V6.99763C13.6607 6.92397 13.6005 6.8637 13.5268 6.8637Z" fill="black"/>
</svg>
