<svg width="15" height="15" viewBox="0 0 15 15" fill="none" xmlns="http://www.w3.org/2000/svg">
<path d="M13.4766 7.09473L7.15179 1.60533C7.10325 1.56348 7.0413 1.54004 6.97601 1.54004H5.49443C5.37054 1.54004 5.31363 1.69406 5.40738 1.77441L11.2701 6.8637H1.47322C1.39956 6.8637 1.33929 6.92397 1.33929 6.99763V8.00209C1.33929 8.07575 1.39956 8.13602 1.47322 8.13602H11.2684L5.4057 13.2253C5.31195 13.3073 5.36887 13.4597 5.49275 13.4597H7.02456C7.05637 13.4597 7.08818 13.448 7.11162 13.4262L13.4766 7.90499C13.5345 7.8546 13.581 7.79235 13.6128 7.72246C13.6447 7.65257 13.6612 7.57666 13.6612 7.49986C13.6612 7.42306 13.6447 7.34715 13.6128 7.27726C13.581 7.20737 13.5345 7.14512 13.4766 7.09473Z" fill="black"/>
</svg>
