<svg width="15" height="15" viewBox="0 0 15 15" fill="none" xmlns="http://www.w3.org/2000/svg">
<path d="M14.9924 14.4213L13.9666 8.60406H14.3131C14.5918 8.60406 14.8163 8.38325 14.8163 8.10914V4.45431C14.8163 4.1802 14.5918 3.95939 14.3131 3.95939H9.55162V0.494924C9.55162 0.220812 9.3271 0 9.04838 0H5.95151C5.67279 0 5.44826 0.220812 5.44826 0.494924V3.95939H0.686817C0.408099 3.95939 0.183575 4.1802 0.183575 4.45431V8.10914C0.183575 8.38325 0.408099 8.60406 0.686817 8.60406H1.03328L0.00744031 14.4213C-0.00513072 14.4923 -0.00174058 14.5652 0.0173728 14.6348C0.0364861 14.7044 0.0708593 14.7691 0.118079 14.8242C0.165299 14.8794 0.224221 14.9237 0.290707 14.954C0.357194 14.9844 0.429633 15.0001 0.50294 15H14.4969C14.526 15 14.555 14.9981 14.5821 14.9924C14.6473 14.9816 14.7097 14.9583 14.7656 14.9237C14.8216 14.8891 14.87 14.844 14.9082 14.7909C14.9463 14.7378 14.9734 14.6778 14.9879 14.6144C15.0023 14.551 15.0039 14.4853 14.9924 14.4213ZM1.53846 5.29188H6.80315V1.33249H8.19674V5.29188H13.4614V7.27157H1.53846V5.29188ZM10.5968 13.6675V10.698C10.5968 10.6142 10.5271 10.5457 10.442 10.5457H9.51291C9.42775 10.5457 9.35807 10.6142 9.35807 10.698V13.6675H5.64182V10.698C5.64182 10.6142 5.57214 10.5457 5.48697 10.5457H4.55791C4.47275 10.5457 4.40307 10.6142 4.40307 10.698V13.6675H1.51523L2.38816 8.71827H12.6098L13.4827 13.6675H10.5968Z" fill="black"/>
</svg>
