<svg width="85" height="108" viewBox="0 0 85 108" fill="none" xmlns="http://www.w3.org/2000/svg">
<path d="M83.8651 27.0723L57.8821 1.13304C57.1577 0.409822 56.1797 0 55.1534 0H3.86364C1.72656 0 0 1.72366 0 3.85714V104.143C0 106.276 1.72656 108 3.86364 108H81.1364C83.2734 108 85 106.276 85 104.143V29.8085C85 28.7839 84.5895 27.7955 83.8651 27.0723ZM76.0895 31.5804H53.3665V8.89554L76.0895 31.5804ZM76.3068 99.3214H8.69318V8.67857H45.1562V34.7143C45.1562 36.0569 45.6905 37.3446 46.6415 38.294C47.5925 39.2434 48.8824 39.7768 50.2273 39.7768H76.3068V99.3214ZM46.3636 49.1786C46.3636 48.6482 45.929 48.2143 45.3977 48.2143H39.6023C39.071 48.2143 38.6364 48.6482 38.6364 49.1786V62.1964H25.5966C25.0653 62.1964 24.6307 62.6304 24.6307 63.1607V68.9464C24.6307 69.4768 25.0653 69.9107 25.5966 69.9107H38.6364V82.9286C38.6364 83.4589 39.071 83.8929 39.6023 83.8929H45.3977C45.929 83.8929 46.3636 83.4589 46.3636 82.9286V69.9107H59.4034C59.9347 69.9107 60.3693 69.4768 60.3693 68.9464V63.1607C60.3693 62.6304 59.9347 62.1964 59.4034 62.1964H46.3636V49.1786Z" fill="#7C7C7C"/>
</svg>
