<svg width="40" height="40" viewBox="0 0 40 40" fill="none" xmlns="http://www.w3.org/2000/svg">
<path fill-rule="evenodd" clip-rule="evenodd" d="M33.9469 2.0177H6.0531C3.8244 2.0177 2.0177 3.8244 2.0177 6.05309V33.9469C2.0177 36.1756 3.8244 37.9823 6.05309 37.9823H33.9469C36.1756 37.9823 37.9823 36.1756 37.9823 33.9469V6.0531C37.9823 3.82441 36.1756 2.0177 33.9469 2.0177ZM6.0531 0H33.9469C37.2899 0 40 2.71006 40 6.0531V33.9469C40 37.2899 37.2899 40 33.9469 40H6.05309C2.71006 40 0 37.2899 0 33.9469V6.05309C0 2.71006 2.71006 0 6.0531 0Z" fill="#E5F5CB"/>
<path d="M20.0576 9.65259C26.2718 9.65259 31.3142 13.6588 31.3144 18.5403C31.3144 23.4218 26.2884 27.4366 20.0742 27.4368C19.3947 27.4334 18.716 27.3851 18.0429 27.2922L13.4824 30.3674C13.4282 30.4139 13.3601 30.4418 13.289 30.4475C13.2034 30.4472 13.1208 30.4153 13.0566 30.3586C13.0126 30.3143 12.9819 30.2584 12.9677 30.1975C12.9536 30.1366 12.9566 30.0731 12.9765 30.0139L14.0361 26.0559C10.9048 24.4742 8.81732 21.7037 8.81732 18.5403C8.81752 13.6669 13.8354 9.6527 20.0576 9.65259ZM16.8876 15.8909C16.7474 15.8846 16.6074 15.9183 16.4853 15.9875C16.3709 16.0622 16.2881 16.1769 16.2529 16.3088L14.5507 20.925C14.5186 21.0134 14.4628 21.1102 14.4628 21.1985C14.4491 21.278 14.4491 21.3592 14.4628 21.4387C14.4586 21.4841 14.4586 21.5301 14.4628 21.5754C14.4863 21.7085 14.5573 21.8282 14.663 21.9124C14.7716 21.9939 14.9052 22.037 15.041 22.0334C15.1661 22.0491 15.2927 22.0205 15.3994 21.9534C15.5061 21.8861 15.587 21.784 15.6269 21.6643L15.9638 20.676H18.0751L18.413 21.6643C18.4539 21.7816 18.533 21.8816 18.6376 21.9485C18.7425 22.0155 18.8673 22.0458 18.9911 22.0334C19.0714 22.0353 19.1512 22.0207 19.2255 21.9905C19.3001 21.9601 19.3685 21.9143 19.4247 21.8567C19.4827 21.8042 19.5281 21.7393 19.5585 21.6672C19.589 21.5951 19.6032 21.517 19.6005 21.4387C19.6033 21.388 19.6033 21.3371 19.6005 21.2864C19.5726 21.1641 19.5386 21.0433 19.497 20.925L17.8906 16.3889C17.8522 16.2282 17.7551 16.0876 17.6181 15.9954C17.4887 15.9218 17.3411 15.8855 17.1923 15.8909H16.8876ZM11.539 15.9954C11.3662 15.993 11.1966 16.0463 11.0566 16.1477C10.9933 16.1967 10.9426 16.2606 10.9091 16.3333C10.8757 16.4059 10.8604 16.4858 10.8642 16.5657C10.8603 16.6083 10.8603 16.651 10.8642 16.6936C10.877 16.761 10.9036 16.8254 10.9423 16.8821C10.9809 16.9386 11.0309 16.9863 11.0888 17.0227C11.2197 17.1005 11.3702 17.1394 11.5224 17.135H12.7509L12.7587 21.3586C12.7508 21.4173 12.7508 21.4768 12.7587 21.5354C12.7851 21.6779 12.8622 21.8063 12.9755 21.8967C13.0947 21.9893 13.2427 22.0377 13.3935 22.0334C13.4795 22.0368 13.5654 22.0222 13.6454 21.9905C13.7256 21.9587 13.7989 21.9104 13.8593 21.8489C13.9223 21.7846 13.9711 21.7075 14.0029 21.6233C14.0347 21.539 14.0487 21.4486 14.0439 21.3586V17.135H15.2324C15.402 17.1427 15.5695 17.0916 15.706 16.9905C15.7692 16.9399 15.82 16.8748 15.8535 16.801C15.8868 16.7272 15.9021 16.6466 15.8984 16.5657C15.9023 16.5256 15.9023 16.4846 15.8984 16.4446C15.8876 16.3767 15.8619 16.3119 15.8232 16.2551C15.7843 16.1982 15.7332 16.1503 15.6738 16.1155C15.5451 16.0317 15.3936 15.99 15.2402 15.9954H11.539ZM27.9101 15.8909C27.8144 15.8891 27.7199 15.9142 27.6376 15.9631C27.5502 16.0328 27.4668 16.1079 27.3886 16.1877L25.3574 18.5325V16.3967C25.3314 16.2518 25.2545 16.1209 25.1406 16.0276C25.0092 15.9319 24.8487 15.8841 24.6865 15.8928C24.5241 15.9016 24.3693 15.9661 24.249 16.0754C24.1306 16.2107 24.0674 16.386 24.0722 16.5657L24.0244 21.3186C24.0164 21.3772 24.0164 21.4368 24.0244 21.4954C24.0507 21.638 24.1277 21.7663 24.2411 21.8567C24.3577 21.948 24.5023 21.9964 24.6503 21.9934C24.739 21.9971 24.8282 21.9822 24.9111 21.9504C24.9937 21.9187 25.0694 21.8707 25.1328 21.8088C25.2511 21.6736 25.3143 21.4983 25.3095 21.3186V19.9778L26.0234 19.2307L27.5165 21.6399C27.5784 21.7528 27.6674 21.8494 27.7744 21.9211C27.8729 21.9728 27.9834 21.9979 28.0947 21.9934C28.2625 21.9958 28.4265 21.9413 28.5605 21.8401C28.6317 21.7795 28.6876 21.7031 28.7226 21.6165C28.7575 21.5298 28.7709 21.4359 28.7617 21.343V21.303C28.7174 21.168 28.6526 21.0401 28.5693 20.925V20.845L26.9628 18.3557L28.2958 16.8948C28.3546 16.8284 28.4056 16.7557 28.4482 16.678C28.49 16.6046 28.5124 16.5213 28.5126 16.4368V16.3323C28.5012 16.2676 28.4771 16.2057 28.4413 16.1506C28.4055 16.0955 28.3582 16.0487 28.3036 16.012C28.1878 15.9328 28.0504 15.8901 27.9101 15.8909ZM20.4355 15.8909C20.348 15.8868 20.2602 15.9011 20.1786 15.9329C20.0972 15.9646 20.0234 16.0134 19.9619 16.0754C19.8406 16.2089 19.7769 16.3855 19.7851 16.5657L19.8085 21.134C19.8027 21.2221 19.8027 21.3106 19.8085 21.3987C19.8331 21.5588 19.92 21.703 20.0497 21.8C20.1949 21.8946 20.3671 21.9401 20.54 21.929H23.2529C23.4257 21.9313 23.5953 21.878 23.7353 21.7766C23.7986 21.7276 23.8492 21.6637 23.8828 21.5911C23.9163 21.5184 23.9315 21.4386 23.9277 21.3586V21.2385C23.9154 21.171 23.8892 21.1067 23.8505 21.05C23.8118 20.9934 23.7614 20.9454 23.7031 20.9094C23.573 20.8288 23.4225 20.7863 23.2695 20.7883H21.0615V16.5657C21.0694 16.5097 21.0694 16.4527 21.0615 16.3967C21.0383 16.2527 20.964 16.1217 20.8525 16.0276C20.7323 15.9374 20.5857 15.8892 20.4355 15.8909ZM17.8105 19.7688H16.2929L17.0556 17.3606L17.8105 19.7688Z" fill="#E5F5CB"/>
</svg>
