<?xml version="1.0" standalone="no"?>
<!DOCTYPE svg PUBLIC "-//W3C//DTD SVG 20010904//EN"
 "http://www.w3.org/TR/2001/REC-SVG-20010904/DTD/svg10.dtd">
<svg version="1.0" xmlns="http://www.w3.org/2000/svg"
 width="1080.000000pt" height="1080.000000pt" viewBox="0 0 1080.000000 1080.000000"
 preserveAspectRatio="xMidYMid meet">

<g transform="translate(0.000000,1080.000000) scale(0.100000,-0.100000)"
fill="#000000" stroke="none">
<path d="M5217 8772 c-82 -55 -145 -224 -148 -400 -1 -50 -4 -92 -8 -92 -10 0
-33 17 -32 24 6 36 -119 160 -172 170 -68 13 -117 -32 -117 -106 0 -39 45
-121 89 -162 42 -40 40 -56 -8 -56 -22 0 -81 -9 -133 -19 -416 -84 -834 -379
-1082 -764 -207 -321 -306 -651 -306 -1017 0 -129 -3 -158 -20 -198 -11 -26
-27 -81 -36 -122 -55 -265 -2 -528 149 -730 138 -185 404 -371 679 -475 47
-18 47 -18 25 -34 -12 -9 -53 -36 -92 -60 -96 -60 -265 -193 -345 -272 -175
-175 -280 -370 -280 -525 0 -70 28 -124 70 -134 17 -4 26 -15 31 -38 8 -38 23
-59 60 -78 34 -17 79 -18 113 -3 21 10 29 8 56 -14 66 -56 180 -44 260 28 52
46 57 42 64 -56 6 -74 37 -219 71 -335 4 -14 -1 -30 -18 -50 -104 -124 -127
-376 -53 -582 15 -42 15 -43 -18 -105 -42 -78 -51 -125 -32 -171 20 -47 57
-70 120 -71 28 0 58 -5 66 -10 8 -6 35 -15 60 -22 67 -18 340 8 435 41 88 31
78 33 -22 4 -100 -28 -368 -33 -418 -8 -28 15 -30 19 -27 70 2 46 1 52 -9 35
-46 -79 -100 -95 -151 -45 -24 25 -29 36 -25 60 7 35 28 82 58 132 l23 38 -30
87 c-26 79 -29 101 -29 218 0 142 11 188 64 278 l28 49 43 -79 c111 -207 318
-379 582 -487 34 -13 38 -20 58 -87 30 -99 22 -147 -32 -201 -23 -23 -34 -38
-24 -35 10 4 24 7 32 7 8 0 13 6 11 12 -1 7 7 14 18 16 30 4 45 48 44 126 -2
60 -3 65 -8 31 l-7 -40 -8 47 c-4 25 -5 55 -2 66 5 15 2 22 -11 26 -43 13 60
-5 142 -24 131 -31 188 -38 368 -45 104 -4 185 -3 227 5 118 20 115 21 118
-29 3 -36 -2 -52 -28 -87 -68 -96 -79 -172 -31 -226 27 -30 35 -33 117 -41 49
-5 197 -10 329 -10 270 -1 291 3 374 78 49 44 77 124 87 245 7 78 7 79 28 64
73 -47 248 -85 401 -86 162 -2 270 25 429 104 212 107 368 291 442 523 26 81
26 298 1 365 -42 108 -133 200 -231 233 -94 32 -221 16 -301 -38 -20 -14 -40
-24 -43 -21 -2 3 0 45 7 94 59 462 -115 970 -426 1244 -24 21 -40 43 -37 50 3
7 28 31 56 53 54 42 183 197 245 293 84 132 159 333 200 537 14 71 18 139 18
325 0 205 -3 249 -23 343 -52 253 -90 365 -189 569 -220 451 -582 774 -1042
929 -91 31 -271 69 -326 69 -19 0 -36 4 -39 9 -3 4 27 53 68 107 80 109 101
157 91 210 -7 37 -52 74 -90 74 -54 0 -209 -130 -297 -247 -21 -29 -40 -53
-42 -53 -1 0 -3 66 -4 148 -1 222 -32 337 -99 363 -37 14 -75 11 -106 -9z
m112 -46 c36 -39 43 -88 47 -335 2 -128 5 -236 8 -238 2 -2 30 30 61 73 74
100 198 230 254 266 47 30 89 36 109 16 27 -27 13 -69 -55 -165 -157 -221
-143 -197 -119 -205 11 -3 42 -6 68 -7 74 -2 246 -38 365 -77 612 -201 1081
-793 1188 -1499 69 -457 -20 -890 -248 -1205 -64 -88 -235 -251 -327 -312
-112 -74 -274 -159 -385 -202 -495 -190 -1208 -213 -1895 -61 -532 118 -940
396 -1075 732 -37 93 -56 199 -56 318 1 119 12 192 45 294 22 65 26 101 31
246 7 252 23 350 85 538 126 377 344 677 670 919 196 146 483 263 690 283 123
11 160 17 160 25 0 4 -29 36 -65 71 -70 67 -105 127 -105 176 0 31 21 63 41
63 50 0 142 -81 199 -176 19 -31 52 -76 73 -98 34 -36 38 -38 32 -16 -17 64
-17 266 -1 344 40 196 137 305 205 232z m1606 -3897 c29 -55 -7 -295 -70 -459
l-27 -71 -15 28 c-70 135 -137 228 -247 341 -39 39 -65 72 -59 72 7 0 15 -5
19 -11 4 -7 14 -2 28 14 19 22 32 26 84 28 34 1 62 6 62 10 0 4 19 10 42 14
23 4 57 16 75 26 19 11 40 19 47 19 29 0 22 26 -18 70 -41 45 -41 45 12 -5 30
-27 60 -62 67 -76z m-525 -80 c163 -109 346 -352 425 -564 72 -196 87 -500 27
-567 -25 -29 -40 -21 -60 34 l-19 51 -17 -70 c-29 -116 -71 -164 -132 -149
-25 7 -40 21 -107 101 l-25 29 -27 -32 c-36 -43 -71 -42 -127 4 -170 142 -294
357 -363 629 -24 93 -28 304 -9 405 l15 75 77 18 c42 9 120 32 172 51 52 18
100 31 105 28 6 -3 35 -22 65 -43z m-2137 10 c40 -12 74 -23 75 -25 2 -1 -14
-33 -36 -71 -148 -255 -246 -522 -271 -743 -15 -126 -23 -150 -62 -179 -50
-37 -132 -71 -172 -71 -56 0 -90 37 -81 87 l6 38 -41 -44 c-39 -42 -43 -43
-86 -38 -65 7 -85 28 -85 92 0 29 7 69 16 90 24 59 11 62 -29 6 -42 -57 -62
-64 -78 -23 -41 103 62 339 226 520 102 111 471 381 523 382 13 0 56 -10 95
-21z m2776 -99 c92 -173 152 -374 172 -584 11 -110 11 -144 -4 -269 -19 -152
-43 -252 -83 -343 -27 -61 -44 -70 -19 -11 8 21 13 37 11 37 -10 0 -37 -70
-31 -80 10 -16 -47 -122 -58 -107 -5 8 -6 5 -3 -8 4 -13 -3 -31 -20 -50 -18
-22 -22 -24 -14 -7 7 14 7 22 1 22 -6 0 -8 6 -5 14 3 8 -3 16 -15 19 -31 8
-45 76 -35 177 5 47 9 124 9 172 -1 53 3 83 8 75 5 -7 6 0 3 18 -4 17 -10 75
-15 131 -11 112 -44 266 -72 332 -17 39 -17 46 -4 72 51 99 105 307 108 417 2
85 7 83 66 -27z m-2533 44 c43 -8 176 -28 294 -44 202 -27 234 -28 520 -26
252 2 330 6 448 24 79 12 148 24 153 28 6 3 6 -17 2 -53 -5 -32 -8 -130 -8
-218 1 -143 4 -171 29 -265 54 -203 163 -398 304 -543 75 -78 132 -111 178
-104 l35 6 -7 -37 c-10 -61 -49 -164 -77 -209 l-27 -42 -67 32 c-150 70 -306
33 -464 -110 -93 -84 -159 -258 -159 -419 l0 -83 -37 -8 c-21 -4 -128 -8 -238
-8 -163 1 -223 5 -325 23 -299 54 -485 139 -674 306 -113 100 -187 213 -254
386 -73 187 -88 454 -39 675 39 173 51 213 97 322 42 100 142 296 164 323 7 8
18 28 24 43 9 21 17 27 31 22 10 -3 54 -12 97 -21z m3058 -1015 c92 -23 189
-126 220 -233 23 -78 21 -209 -5 -303 -20 -74 -77 -197 -116 -254 -228 -328
-686 -457 -1056 -298 -53 23 -76 38 -72 47 3 8 5 38 5 67 l0 53 76 41 c124 67
269 187 340 282 l39 51 110 -6 c147 -9 179 -8 234 10 100 34 174 98 187 163 9
43 -5 38 -45 -15 -41 -54 -103 -93 -179 -110 -51 -12 -72 -12 -124 3 -25 6
-23 47 7 220 31 182 33 188 58 210 14 12 18 13 12 3 -5 -9 2 -6 16 6 80 68
184 91 293 63z m-698 -206 c-45 -240 -137 -442 -274 -602 l-46 -54 -14 68
c-15 78 -67 193 -112 250 -17 21 -29 41 -27 44 57 101 104 232 109 303 l2 28
36 -34 c45 -43 71 -56 111 -56 46 0 93 33 120 85 19 36 27 43 46 39 12 -3 30
-1 40 4 10 6 19 9 21 7 2 -1 -4 -38 -12 -82z m253 -180 c-5 -21 -9 -58 -9 -82
0 -42 -1 -43 -27 -36 -16 4 -29 8 -31 10 -4 4 66 145 72 145 2 0 0 -17 -5 -37z
m-924 -67 c229 -61 337 -289 291 -614 -41 -283 -45 -296 -106 -341 -47 -34
-114 -51 -200 -51 -68 0 -80 11 -81 77 l0 38 -17 -43 c-31 -74 -42 -82 -124
-82 -74 0 -143 13 -153 30 -3 5 -1 27 4 49 10 48 2 53 -21 13 -40 -68 -98 -84
-145 -40 -40 37 -32 77 35 175 33 50 35 56 31 120 -13 214 6 352 58 441 57
100 183 198 292 228 60 16 76 16 136 0z m504 -319 c-2 -1 -15 -11 -29 -22
l-25 -20 19 23 c11 12 24 22 29 22 6 0 8 -1 6 -3z"/>
<path d="M4145 7367 c-42 -20 -93 -64 -110 -98 -21 -40 -19 -43 15 -19 96 69
207 82 299 36 29 -15 55 -25 58 -22 15 14 -12 59 -49 83 -34 23 -54 28 -112
31 -44 1 -82 -3 -101 -11z"/>
<path d="M6030 7282 c-65 -25 -151 -112 -110 -112 6 0 28 11 49 25 112 70 231
54 347 -47 19 -17 37 -29 39 -27 11 11 -37 89 -71 115 -81 63 -167 78 -254 46z"/>
<path d="M4084 6631 c-121 -34 -230 -120 -290 -226 -49 -88 -44 -145 13 -145
17 0 33 16 63 64 119 189 299 249 445 148 69 -48 96 -98 135 -249 11 -44 34
-60 70 -48 38 12 43 98 12 201 -38 125 -142 225 -269 258 -75 20 -102 19 -179
-3z"/>
<path d="M6065 6542 c-112 -11 -228 -80 -313 -186 -62 -76 -92 -135 -92 -179
0 -41 19 -60 57 -55 23 2 34 15 65 71 73 133 140 195 245 222 74 20 130 8 210
-44 83 -54 159 -156 188 -251 16 -55 67 -79 95 -45 22 26 6 115 -36 199 -85
172 -260 284 -419 268z"/>
<path d="M4797 6013 c-22 -21 2 -56 31 -46 20 7 15 53 -6 53 -10 0 -22 -3 -25
-7z"/>
<path d="M5184 5975 c-8 -19 3 -35 26 -35 19 0 30 17 23 38 -6 17 -42 15 -49
-3z"/>
<path d="M4315 5819 c-9 -14 28 -52 86 -90 46 -29 47 -30 54 -97 10 -94 38
-179 101 -308 42 -87 68 -126 117 -175 127 -130 306 -187 500 -160 187 26 336
137 449 336 56 99 116 247 124 308 6 41 9 46 39 51 18 4 38 13 45 21 15 18 9
57 -9 63 -8 3 -11 0 -7 -7 4 -7 2 -9 -8 -5 -8 3 -35 -3 -60 -15 -56 -24 -161
-54 -281 -78 -140 -28 -525 -25 -695 6 -163 29 -297 74 -366 122 -57 40 -78
47 -89 28z m392 -195 c-3 -3 -12 -4 -19 -1 -8 3 -5 6 6 6 11 1 17 -2 13 -5z
m511 -41 c-38 -2 -98 -2 -135 0 -38 2 -7 3 67 3 74 0 105 -1 68 -3z m73 -118
c46 -8 109 -24 139 -36 63 -24 150 -69 150 -78 0 -15 -75 -119 -113 -159 -158
-163 -403 -207 -614 -112 -71 32 -138 84 -178 136 l-27 36 33 35 c103 106 308
190 470 192 31 1 94 -6 140 -14z m-650 -182 c13 -16 12 -17 -3 -4 -10 7 -18
15 -18 17 0 8 8 3 21 -13z"/>
<path d="M7181 3684 c0 -11 3 -14 6 -6 3 7 2 16 -1 19 -3 4 -6 -2 -5 -13z"/>
<path d="M7148 3557 c-3 -19 -2 -25 4 -19 6 6 8 18 6 28 -3 14 -5 12 -10 -9z"/>
<path d="M7066 3373 c-6 -14 -5 -15 5 -6 7 7 10 15 7 18 -3 3 -9 -2 -12 -12z"/>
<path d="M4891 4054 c0 -11 3 -14 6 -6 3 7 2 16 -1 19 -3 4 -6 -2 -5 -13z"/>
<path d="M4788 3963 c6 -2 18 -2 25 0 6 3 1 5 -13 5 -14 0 -19 -2 -12 -5z"/>
<path d="M5238 3923 c12 -2 30 -2 40 0 9 3 -1 5 -23 4 -22 0 -30 -2 -17 -4z"/>
<path d="M5318 3923 c7 -3 16 -2 19 1 4 3 -2 6 -13 5 -11 0 -14 -3 -6 -6z"/>
<path d="M5408 3923 c17 -2 47 -2 65 0 17 2 3 4 -33 4 -36 0 -50 -2 -32 -4z"/>
<path d="M5278 3893 c46 -2 118 -2 160 0 42 1 5 3 -83 3 -88 0 -123 -2 -77 -3z"/>
<path d="M4884 3600 c0 -52 1 -74 3 -47 2 26 2 68 0 95 -2 26 -3 4 -3 -48z"/>
<path d="M4854 3570 c0 -52 1 -74 3 -47 2 26 2 68 0 95 -2 26 -3 4 -3 -48z"/>
<path d="M5048 3093 c7 -3 16 -2 19 1 4 3 -2 6 -13 5 -11 0 -14 -3 -6 -6z"/>
<path d="M6560 2882 c0 -15 4 -20 16 -15 9 3 12 9 7 12 -4 3 -11 10 -15 15 -5
5 -8 0 -8 -12z"/>
</g>
</svg>
