<?xml version="1.0" standalone="no"?>
<!DOCTYPE svg PUBLIC "-//W3C//DTD SVG 20010904//EN"
 "http://www.w3.org/TR/2001/REC-SVG-20010904/DTD/svg10.dtd">
<svg version="1.0" xmlns="http://www.w3.org/2000/svg"
 width="1080.000000pt" height="1080.000000pt" viewBox="0 0 1080.000000 1080.000000"
 preserveAspectRatio="xMidYMid meet">

<g transform="translate(0.000000,1080.000000) scale(0.100000,-0.100000)"
fill="#000000" stroke="none">
<path d="M5213 8730 c-18 -11 -33 -25 -33 -31 0 -7 8 -5 20 6 19 17 19 17 15
-5 -5 -25 -15 -40 -15 -23 0 6 -8 10 -17 9 -26 -3 -80 -111 -105 -208 -14 -55
-21 -117 -22 -185 0 -57 -2 -103 -4 -103 -2 0 -34 25 -71 55 -71 57 -171 109
-232 120 -50 9 -99 -31 -99 -81 0 -41 50 -144 96 -198 41 -48 42 -56 5 -56
-62 0 -243 -45 -371 -92 -338 -125 -616 -324 -824 -593 -172 -221 -293 -507
-340 -805 -36 -223 -40 -328 -22 -516 l16 -161 -25 -84 c-37 -124 -50 -248
-35 -356 21 -163 74 -331 140 -443 42 -72 42 -72 37 -21 -4 39 -3 42 9 26 7
-10 11 -22 7 -28 -4 -6 -1 -7 7 -2 9 5 11 2 7 -11 -55 -184 -69 -342 -42 -478
16 -88 83 -230 134 -285 18 -20 27 -27 20 -16 -13 18 -12 19 3 7 9 -8 15 -19
12 -26 -6 -15 98 -121 171 -176 28 -21 79 -53 114 -71 35 -18 65 -39 68 -46 3
-6 -9 -52 -25 -101 -44 -130 -56 -228 -49 -416 6 -179 31 -294 87 -407 16 -34
30 -65 30 -70 0 -4 -16 -16 -36 -25 -43 -21 -85 -76 -116 -153 -19 -47 -22
-75 -23 -181 0 -127 5 -157 52 -303 l25 -79 -31 -61 c-42 -86 -47 -125 -23
-180 26 -59 69 -90 177 -126 152 -50 315 -60 455 -27 75 17 82 18 75 6 -5 -9
7 -10 51 -6 41 3 50 3 29 -3 -26 -7 -27 -9 -7 -10 35 -2 112 20 106 30 -3 5 2
6 10 3 16 -6 106 42 106 58 0 5 5 6 12 2 6 -4 9 -3 5 2 -3 5 1 18 9 29 8 10
14 15 14 9 0 -5 9 5 20 21 13 19 18 39 15 55 -4 16 -3 20 3 12 13 -19 22 33
22 124 0 86 -5 83 110 54 122 -31 327 -52 533 -53 218 -2 203 11 142 -126 -44
-98 -44 -142 2 -200 42 -52 125 -77 299 -92 223 -19 488 -1 610 41 59 21 131
70 115 79 -5 4 -3 14 6 26 13 16 15 17 10 3 -11 -31 4 -19 18 15 7 18 15 68
16 110 3 61 6 76 17 72 28 -10 287 -35 372 -35 79 0 201 17 255 35 17 6 17 5
5 -5 -12 -9 -8 -10 20 -4 98 19 295 97 286 113 -3 5 2 15 12 22 15 13 16 12 3
-3 -18 -24 1 -23 30 2 15 13 18 18 7 14 -13 -4 -15 -1 -11 15 6 23 49 55 63
46 6 -3 10 0 10 8 0 20 23 37 57 43 16 3 44 22 66 47 35 38 36 39 13 6 -15
-20 -53 -57 -86 -83 -33 -26 -60 -49 -60 -52 0 -24 191 154 194 181 2 11 8 20
14 20 18 0 103 128 97 144 -3 9 -3 12 1 8 8 -7 44 67 70 141 23 68 34 197 22
261 -23 126 -114 248 -218 293 -146 64 -429 0 -491 -110 -11 -20 -17 -28 -13
-17 4 11 18 79 32 150 22 113 25 158 26 345 0 188 -3 229 -23 330 -66 323
-203 583 -420 800 -103 103 -140 153 -107 147 6 -1 10 4 9 10 -2 7 1 12 5 10
22 -6 136 114 137 145 0 3 4 10 9 15 5 5 6 3 2 -4 -4 -7 -5 -13 -1 -13 13 0
136 204 175 291 141 317 193 729 135 1085 -41 255 -129 532 -222 703 -54 100
-154 251 -163 246 -4 -2 -18 8 -31 23 l-24 27 28 -24 c77 -68 -13 49 -132 172
-101 105 -151 144 -161 128 -5 -10 -9 -9 -13 4 -5 11 -3 14 6 9 6 -4 3 2 -7
14 -23 26 -45 30 -25 5 13 -16 12 -17 -3 -4 -10 7 -16 17 -13 21 13 22 -263
173 -435 238 -97 37 -328 92 -386 92 -28 0 -30 6 -9 27 12 11 13 18 4 29 -8
10 -4 26 20 66 24 42 30 48 29 28 -1 -14 -5 -29 -8 -35 -10 -14 -20 -45 -16
-45 3 0 22 32 45 70 38 67 61 127 61 160 0 13 -1 13 -10 0 -7 -11 -10 -6 -10
20 0 26 3 31 10 20 13 -21 12 -6 -1 24 -43 95 -245 36 -407 -118 -45 -44 -81
-85 -78 -91 2 -6 -2 -12 -10 -12 -8 0 -14 9 -14 20 0 26 -5 20 -14 -16 -4 -19
-3 -26 4 -22 5 3 10 1 10 -4 0 -6 7 -11 16 -11 15 0 15 -2 0 -22 -9 -13 -25
-36 -36 -53 l-20 -30 0 130 c0 72 -5 164 -10 205 -11 84 -2 194 12 150 5 -17
6 -10 3 20 -13 113 -66 200 -122 200 -15 0 -43 -9 -60 -20z m115 -23 c6 -7 8
-18 4 -24 -5 -7 -13 -2 -25 13 -14 19 -15 24 -4 24 8 0 19 -6 25 -13z m-31
-19 c15 -19 40 -105 52 -178 14 -84 31 -321 31 -430 l0 -85 36 60 c103 172
266 310 397 337 50 11 59 10 74 -5 15 -15 15 -20 -1 -79 -22 -82 -72 -169
-136 -240 l-51 -57 38 -6 c292 -48 495 -111 673 -207 509 -276 829 -754 937
-1403 25 -151 25 -519 1 -650 -74 -395 -257 -727 -498 -904 -66 -48 -199 -126
-204 -120 -1 2 -11 33 -20 69 -76 287 -228 575 -454 862 l-53 68 58 -6 c50 -5
63 -3 93 18 68 47 76 110 18 146 -78 48 -310 82 -443 65 -44 -6 -82 -9 -84 -7
-2 2 36 29 85 60 109 72 202 110 313 129 66 12 91 21 113 42 33 32 35 56 8 83
-17 17 -33 20 -101 20 -45 0 -108 -7 -140 -15 -152 -40 -337 -146 -443 -254
-56 -56 -60 -65 -66 -118 -7 -62 9 -132 36 -154 8 -6 14 -21 14 -33 0 -19 -5
-21 -42 -18 -68 6 -84 -19 -92 -143 -3 -55 -9 -139 -12 -186 -5 -69 -2 -99 14
-155 25 -85 53 -213 87 -404 14 -80 37 -194 51 -253 15 -60 22 -112 18 -117
-20 -18 -276 -40 -459 -40 -297 0 -584 42 -793 115 -9 3 -6 17 12 52 31 62 58
164 90 334 37 195 60 279 106 380 41 92 46 126 30 209 -5 29 -4 62 3 92 8 37
7 53 -3 72 -14 28 -62 51 -85 42 -12 -4 -14 0 -8 22 3 15 12 41 20 59 7 18 13
39 13 48 0 23 -37 55 -65 55 -14 0 -25 3 -25 6 0 3 11 19 25 36 14 16 25 39
25 51 0 37 -43 100 -95 140 -109 84 -389 194 -516 204 -58 5 -69 3 -88 -16
-54 -54 -8 -101 155 -156 120 -40 225 -86 279 -124 l30 -21 -85 6 c-208 15
-429 -44 -438 -118 -7 -58 93 -93 224 -78 44 4 80 7 81 6 2 -2 -9 -9 -25 -17
-74 -37 -185 -121 -258 -193 -120 -121 -278 -371 -349 -553 -15 -40 -31 -73
-34 -73 -8 0 -75 131 -101 200 -79 203 -89 458 -24 629 24 62 25 71 15 151
-45 360 -1 696 131 1010 154 363 434 663 787 840 200 100 412 166 648 201 l82
12 -48 38 c-74 59 -142 161 -157 237 -6 31 -6 32 28 32 95 0 268 -131 368
-277 29 -43 50 -69 47 -58 -58 193 -46 458 28 607 53 104 95 140 122 106z m61
-33 c-3 -3 -9 2 -12 12 -6 14 -5 15 5 6 7 -7 10 -15 7 -18z m-179 -35 c-16
-28 -25 -36 -31 -28 -6 10 -8 10 -8 -1 0 -8 -3 -12 -6 -9 -3 4 2 19 11 35 9
15 14 20 11 11 -8 -27 9 -21 22 7 6 14 14 25 17 25 4 0 -4 -18 -16 -40z m-29
-59 c0 -3 -5 -13 -10 -21 -9 -13 -10 -13 -10 0 0 13 -1 13 -10 0 -11 -16 -13
-10 -5 13 6 13 35 20 35 8z m217 -43 c-3 -7 -5 -2 -5 12 0 14 2 19 5 13 2 -7
2 -19 0 -25z m-247 -52 c0 -26 -6 -18 -14 19 -5 22 -4 26 4 15 5 -8 10 -24 10
-34z m-21 -113 c-6 -37 -8 -113 -5 -168 3 -63 2 -92 -4 -79 -5 12 -13 25 -19
29 -6 3 -11 11 -11 17 0 7 6 6 15 -2 12 -10 15 -10 15 3 0 8 -5 17 -10 19 -16
5 -11 212 7 273 6 19 6 19 14 -2 4 -12 3 -52 -2 -90z m736 67 c3 -5 -1 -10
-10 -10 -9 0 -13 5 -10 10 3 6 8 10 10 10 2 0 7 -4 10 -10z m78 -4 c13 -11 15
-19 8 -37 -6 -15 -10 -18 -10 -8 -1 9 -8 22 -16 29 -30 25 -14 40 18 16z
m-163 -14 c0 -15 -11 -21 -27 -15 -12 5 -12 7 -1 14 17 11 28 11 28 1z m-50
-37 c0 -2 -10 -9 -22 -15 -22 -11 -22 -10 -4 4 21 17 26 19 26 11z m-888 -32
c21 -9 35 -19 33 -23 -7 -11 41 -33 54 -26 7 4 11 -1 11 -13 0 -20 -2 -19 -44
6 -25 15 -42 31 -39 37 4 5 -1 7 -11 3 -10 -4 -15 -3 -11 4 4 6 -3 8 -22 4
-21 -5 -24 -4 -13 4 19 14 5 14 -43 0 l-38 -10 3 -54 c2 -29 5 -51 7 -49 5 4
41 -52 41 -63 0 -4 -7 2 -15 13 -11 15 -15 16 -15 4 0 -9 -6 -5 -15 10 -16 29
-20 141 -5 156 16 16 82 15 122 -3z m812 -14 c-3 -5 -10 -7 -15 -3 -5 3 -7 10
-3 15 3 5 10 7 15 3 5 -3 7 -10 3 -15z m-66 -38 c-13 -17 -27 -30 -32 -30 -6
-1 3 13 19 29 37 38 43 39 13 1z m372 24 c0 -15 -43 -116 -52 -121 -6 -4 -6 2
1 15 7 12 10 25 7 30 -9 14 17 81 31 81 7 0 13 -2 13 -5z m-973 -82 c-4 -3 -7
-1 -7 5 0 7 -7 12 -15 12 -8 0 -15 7 -15 15 0 13 4 12 22 -5 12 -11 18 -23 15
-27z m555 3 c5 3 -2 -12 -17 -35 -15 -22 -32 -38 -37 -35 -6 4 -5 9 2 14 7 4
10 12 7 17 -4 5 1 20 10 33 10 14 18 19 21 12 2 -7 8 -9 14 -6z m-497 -36 c10
8 15 8 21 -1 4 -8 2 -15 -5 -17 -8 -3 -1 -17 21 -41 23 -26 19 -23 -15 9 -26
24 -47 49 -46 55 0 5 3 4 6 -3 4 -9 8 -10 18 -2z m-209 -117 c19 -14 33 -32
30 -39 -3 -7 4 -15 17 -17 19 -4 18 -4 -5 -6 -20 -1 -29 6 -39 28 -7 16 -16
28 -20 26 -3 -3 -14 4 -24 15 -27 29 0 25 41 -7z m1008 19 c3 -5 -1 -9 -9 -9
-8 0 -12 4 -9 9 3 4 7 8 9 8 2 0 6 -4 9 -8z m-707 -34 c-3 -8 -6 -5 -6 6 -1
11 2 17 5 13 3 -3 4 -12 1 -19z m660 -6 c-10 -10 -14 -22 -10 -25 3 -4 -1 -7
-11 -7 -16 0 -16 2 1 25 10 13 22 25 27 25 5 0 2 -8 -7 -18z m46 -39 c-7 -2
-19 -2 -25 0 -7 3 -2 5 12 5 14 0 19 -2 13 -5z m-1010 -10 c-7 -2 -19 -2 -25
0 -7 3 -2 5 12 5 14 0 19 -2 13 -5z m1054 1 c-3 -3 -12 -4 -19 -1 -8 3 -5 6 6
6 11 1 17 -2 13 -5z m-1152 -19 c-27 -7 -59 -13 -70 -13 -11 0 3 6 30 13 28 7
59 13 70 13 11 0 -2 -6 -30 -13z m1235 5 c20 -6 21 -8 5 -8 -11 0 -31 4 -45 8
-20 6 -21 8 -5 8 11 0 31 -4 45 -8z m-1353 -7 c-9 -2 -14 -9 -10 -15 4 -7 0
-9 -10 -5 -10 3 -17 2 -17 -3 0 -13 -27 -13 -35 0 -6 9 46 28 75 28 10 0 9 -2
-3 -5z m1503 -5 c30 -10 31 -12 14 -19 -27 -10 -71 0 -78 17 -7 17 19 18 64 2z
m-93 -4 c-3 -3 -12 -4 -19 -1 -8 3 -5 6 6 6 11 1 17 -2 13 -5z m248 -75 c5 -5
-5 -4 -23 2 -17 6 -32 13 -32 16 0 7 43 -8 55 -18z m-1885 -8 c0 -12 -39 -21
-46 -10 -3 5 4 9 16 9 13 0 19 4 14 12 -4 7 -3 8 4 4 7 -4 12 -11 12 -15z
m-60 -19 c0 -10 -50 -35 -57 -28 -2 2 5 7 16 11 12 3 21 11 21 16 0 5 5 9 10
9 6 0 10 -4 10 -8z m-98 -52 c-17 -11 -60 -34 -95 -51 -34 -17 -69 -38 -78
-45 -13 -12 -16 -12 -16 2 0 19 37 45 71 48 14 2 35 14 47 27 11 13 18 18 14
12 -9 -19 6 -16 40 7 17 11 35 20 40 20 6 0 -5 -9 -23 -20z m2203 10 c3 -5 2
-10 -4 -10 -5 0 -13 5 -16 10 -3 6 -2 10 4 10 5 0 13 -4 16 -10z m181 -91 c3
-6 -5 -3 -20 6 -14 10 -26 19 -26 22 0 7 39 -17 46 -28z m20 -40 c3 -6 -5 -3
-20 6 -14 10 -26 19 -26 22 0 7 39 -17 46 -28z m-2656 -9 c0 -5 -6 -10 -14
-10 -8 0 -18 -5 -22 -12 -5 -8 -1 -9 12 -4 15 6 17 5 7 -5 -9 -9 -16 -10 -24
-2 -8 8 -4 15 12 27 27 19 29 19 29 6z m-60 -65 c-7 -8 -17 -15 -23 -15 -6 0
-2 7 9 15 25 19 30 19 14 0z m2830 -10 c13 -14 21 -25 18 -25 -2 0 -15 11 -28
25 -13 14 -21 25 -18 25 2 0 15 -11 28 -25z m-2884 -4 c-4 -5 0 -11 6 -14 7
-3 3 -4 -9 -4 -17 1 -19 4 -11 14 12 15 22 18 14 4z m2940 -13 c12 -14 13 -18
3 -10 -9 6 -18 10 -21 7 -2 -3 -5 2 -5 10 0 19 0 19 23 -7z m35 -65 c13 -16
12 -17 -3 -4 -10 7 -18 15 -18 17 0 8 8 3 21 -13z m-3200 -186 l-24 -22 19 27
c10 14 21 24 23 22 3 -3 -6 -15 -18 -27z m-44 -27 c-1 -10 -3 -17 -6 -15 -2 3
-11 -1 -20 -8 -9 -7 -8 -2 4 15 24 33 24 33 22 8z m3504 -102 c16 -29 2 -21
-22 15 -17 23 -18 28 -6 18 10 -8 23 -23 28 -33z m-3591 -58 c-6 -11 -15 -18
-20 -15 -5 3 -14 -3 -19 -14 -8 -14 -8 -20 1 -23 7 -3 2 -20 -16 -49 -16 -24
-25 -35 -21 -24 4 11 8 31 10 45 3 37 35 96 45 81 5 -10 9 -9 13 3 4 9 9 16
12 16 3 0 1 -9 -5 -20z m3666 -50 c5 1 10 -4 12 -10 3 -7 -3 -10 -14 -8 -10 2
-20 12 -22 23 -2 15 -1 16 6 7 5 -8 13 -13 18 -12z m14 -50 c6 -11 8 -20 6
-20 -3 0 -10 9 -16 20 -6 11 -8 20 -6 20 3 0 10 -9 16 -20z m-3803 -120 c1
-23 -2 -38 -7 -35 -6 3 -7 0 -4 -8 3 -8 -1 -30 -9 -48 l-14 -34 3 41 c2 37 21
124 27 124 2 0 3 -18 4 -40z m3883 -5 c0 -5 -5 -3 -10 5 -5 8 -10 20 -10 25 0
6 5 3 10 -5 5 -8 10 -19 10 -25z m20 -75 c1 16 23 -20 34 -58 l7 -22 -23 22
c-13 13 -34 46 -46 75 -29 69 -27 81 3 18 13 -27 24 -43 25 -35z m-3949 -81
c-5 -13 -10 -19 -10 -12 -1 15 10 45 15 40 3 -2 0 -15 -5 -28z m-22 -74 c0 -5
-4 -3 -9 5 -5 8 -9 22 -9 30 0 16 17 -16 18 -35z m4018 -37 c-3 -8 -6 -5 -6 6
-1 11 2 17 5 13 3 -3 4 -12 1 -19z m34 -58 c8 0 7 -5 -2 -16 -12 -15 -14 -14
-20 7 -10 36 -9 57 1 32 5 -13 15 -23 21 -23z m-4086 -95 c-4 -31 -9 -54 -12
-51 -3 2 -1 30 2 61 4 31 9 54 12 51 3 -2 1 -30 -2 -61z m4113 8 c6 -32 8 -78
5 -103 -6 -44 -7 -44 -24 49 -10 52 -16 98 -13 103 12 19 21 5 32 -49z m-4135
-260 c-3 -127 0 -224 10 -298 13 -102 13 -113 -4 -150 -13 -29 -18 -34 -19
-20 -4 34 2 60 14 67 7 5 6 8 -4 8 -10 0 -11 3 -4 8 8 5 10 31 6 82 -3 48 -8
68 -12 55 -4 -11 -8 64 -8 168 0 108 3 187 9 187 5 0 9 18 9 40 0 22 2 40 4
40 2 0 1 -84 -1 -187z m4150 87 c-3 -11 -7 -20 -9 -20 -2 0 -4 9 -4 20 0 11 4
20 9 20 5 0 7 -9 4 -20z m15 -42 c0 -7 4 -33 8 -57 5 -31 4 -42 -4 -37 -6 4
-12 -5 -15 -21 -4 -27 -4 -27 -6 4 0 17 4 33 11 35 10 4 10 13 1 41 -6 20 -8
38 -5 41 8 8 9 8 10 -6z m8 -434 c-3 -8 -11 -14 -18 -13 -10 0 -10 2 0 6 7 3
13 27 14 61 l2 57 3 -49 c2 -27 2 -55 -1 -62z m-19 59 c-3 -10 -5 -4 -5 12 0
17 2 24 5 18 2 -7 2 -21 0 -30z m13 -119 c0 -8 -5 -12 -11 -8 -8 4 -9 0 -4
-15 4 -12 2 -21 -4 -21 -6 0 -11 11 -11 24 0 20 6 29 28 35 1 1 2 -6 2 -15z
m-3165 -14 c3 -6 -2 -22 -12 -38 -22 -31 -55 -113 -49 -120 3 -2 11 10 20 26
17 34 93 88 136 97 78 17 109 -60 75 -185 -8 -30 -17 -66 -21 -80 l-6 -25 18
25 c56 78 97 120 119 120 29 0 34 -14 24 -60 -5 -20 -4 -67 2 -110 10 -72 9
-79 -15 -133 -46 -104 -87 -248 -122 -427 -18 -97 -45 -208 -58 -248 -38 -112
-122 -254 -215 -366 -99 -118 -174 -226 -216 -311 -17 -33 -31 -62 -33 -65 -6
-8 -128 63 -200 118 -144 109 -272 282 -307 417 -21 82 -19 248 4 360 62 298
321 721 523 856 l57 38 -6 -32 c-6 -32 -6 -32 23 10 48 69 162 143 221 143 17
0 35 -5 38 -10z m1740 -45 c60 -25 132 -94 220 -213 60 -80 93 -116 98 -109 6
8 7 5 3 -6 -3 -11 2 -30 12 -45 85 -123 185 -339 253 -542 26 -80 70 -188 97
-240 169 -322 189 -780 39 -906 -74 -62 -214 -101 -321 -89 -276 32 -498 220
-616 520 -45 116 -119 376 -143 505 -55 291 -91 467 -112 553 -29 112 -31 165
-11 258 8 37 11 88 9 113 -6 47 7 76 33 76 20 0 52 -38 85 -100 17 -30 28 -48
25 -39 -2 9 -8 52 -11 96 -6 69 -4 86 13 126 20 45 22 47 63 47 37 0 48 -6 85
-45 27 -27 49 -63 58 -92 l15 -48 0 45 c0 25 -8 69 -18 97 -10 29 -15 55 -12
59 8 8 101 -6 136 -21z m1399 -90 c-6 -28 -7 -29 -15 -8 -4 12 -5 39 -2 60 l6
38 9 -30 c4 -16 5 -43 2 -60z m-1907 -77 c-3 -8 -6 -5 -6 6 -1 11 2 17 5 13 3
-3 4 -12 1 -19z m1867 -23 c3 -8 1 -15 -4 -15 -6 0 -10 7 -10 15 0 8 2 15 4
15 2 0 6 -7 10 -15z m-13 -106 c-6 -16 -10 -18 -10 -7 -1 22 12 55 16 42 2 -6
-1 -22 -6 -35z m-2764 9 c-3 -8 -6 -5 -6 6 -1 11 2 17 5 13 3 -3 4 -12 1 -19z
m-1385 -28 c3 -16 1 -30 -4 -30 -4 0 -8 14 -8 30 0 17 2 30 4 30 2 0 6 -13 8
-30z m1395 -22 c-3 -8 -6 -5 -6 6 -1 11 2 17 5 13 3 -3 4 -12 1 -19z m2736
-13 c-3 -9 -8 -14 -10 -11 -3 3 -2 9 2 15 9 16 15 13 8 -4z m-4126 -37 c-3 -7
-5 -2 -5 12 0 14 2 19 5 13 2 -7 2 -19 0 -25z m4106 -5 c-3 -7 -6 -13 -8 -13
-2 0 -5 6 -8 13 -3 8 1 14 8 14 7 0 11 -6 8 -14z m-4066 -105 c-3 -8 -6 -5 -6
6 -1 11 2 17 5 13 3 -3 4 -12 1 -19z m3988 -68 c-18 -35 -21 -36 -28 -11 -3
13 0 18 8 15 7 -3 15 2 18 10 4 9 9 16 12 16 3 0 -1 -13 -10 -30z m-3941 -57
c4 -13 3 -23 -2 -23 -5 0 -12 15 -15 33 -3 17 -8 41 -11 52 -4 11 0 7 8 -10 7
-16 17 -40 20 -52z m3866 -13 c-6 -11 -13 -20 -16 -20 -2 0 0 9 6 20 6 11 13
20 16 20 2 0 0 -9 -6 -20z m-647 -5 c-3 -9 -8 -14 -10 -11 -3 3 -2 9 2 15 9
16 15 13 8 -4z m-3199 -43 c3 -5 -1 -9 -9 -9 -8 0 -12 4 -9 9 3 4 7 8 9 8 2 0
6 -4 9 -8z m1143 -244 c-3 -8 -6 -5 -6 6 -1 11 2 17 5 13 3 -3 4 -12 1 -19z
m2508 -108 c10 -11 16 -20 13 -20 -3 0 -13 9 -23 20 -10 11 -16 20 -13 20 3 0
13 -9 23 -20z m-3588 -22 c-3 -8 -6 -5 -6 6 -1 11 2 17 5 13 3 -3 4 -12 1 -19z
m-10 -135 c-2 -21 -4 -4 -4 37 0 41 2 58 4 38 2 -21 2 -55 0 -75z m3743 10 c0
-8 -9 0 -50 45 l-45 47 48 -45 c26 -24 47 -45 47 -47z m51 -65 c31 -44 15 -33
-22 15 -19 23 -26 36 -16 28 10 -8 27 -27 38 -43z m-3784 -30 c-3 -7 -5 -2 -5
12 0 14 2 19 5 13 2 -7 2 -19 0 -25z m3416 -8 c3 -11 1 -18 -4 -14 -5 3 -9 12
-9 20 0 20 7 17 13 -6z m-2290 -60 c245 -63 348 -75 677 -74 220 0 307 4 380
16 52 10 95 16 95 15 41 -130 105 -307 128 -352 75 -150 192 -282 315 -354 76
-46 86 -55 50 -46 -13 3 -50 -1 -83 -10 l-60 -15 65 6 c36 3 62 3 59 0 -3 -4
-44 -15 -90 -26 -61 -14 -70 -18 -34 -14 28 3 86 14 131 25 74 18 84 18 123 4
23 -8 81 -20 128 -27 72 -10 96 -10 162 4 43 9 105 29 139 46 54 27 61 28 68
14 3 -10 9 -103 12 -208 7 -270 -18 -471 -80 -642 l-30 -83 -27 24 c-68 63
-187 107 -292 107 -75 0 -198 -32 -286 -75 -127 -62 -234 -181 -283 -314 -16
-40 -59 -274 -60 -319 0 -8 -491 8 -525 18 -22 6 -65 13 -95 15 -92 7 -324 72
-440 124 -321 144 -576 373 -697 628 -77 161 -122 401 -108 568 14 160 41 261
109 401 90 187 130 245 276 410 25 28 61 79 80 112 19 34 36 62 38 62 2 0 72
-18 155 -40z m2742 -31 c22 -41 11 -36 -14 7 -12 19 -16 32 -11 29 6 -3 17
-19 25 -36z m-354 -46 c13 -16 12 -17 -3 -4 -10 7 -18 15 -18 17 0 8 8 3 21
-13z m468 -188 c0 -5 -11 10 -24 35 -13 25 -24 50 -24 55 0 6 11 -10 24 -35
13 -25 24 -49 24 -55z m-374 34 c9 -17 15 -33 13 -35 -3 -2 -12 12 -21 31 -21
43 -13 47 8 4z m95 -54 c0 -5 -5 -3 -10 5 -5 8 -10 20 -10 25 0 6 5 3 10 -5 5
-8 10 -19 10 -25z m-20 -121 c11 -31 19 -59 16 -61 -2 -2 -11 15 -19 39 -8 24
-18 51 -22 61 -4 9 -5 17 -2 17 3 0 15 -25 27 -56z m97 -106 c-3 -8 -6 -5 -6
6 -1 11 2 17 5 13 3 -3 4 -12 1 -19z m-50 -80 c-3 -8 -6 -5 -6 6 -1 11 2 17 5
13 3 -3 4 -12 1 -19z m10 -50 c-3 -7 -5 -2 -5 12 0 14 2 19 5 13 2 -7 2 -19 0
-25z m10 -50 c-3 -7 -5 -2 -5 12 0 14 2 19 5 13 2 -7 2 -19 0 -25z m10 -55
c-3 -10 -5 -4 -5 12 0 17 2 24 5 18 2 -7 2 -21 0 -30z m-318 -47 c2 -45 -6
-27 -12 29 -4 34 -3 42 3 25 4 -14 8 -38 9 -54z m328 -28 c-2 -13 -4 -5 -4 17
-1 22 1 32 4 23 2 -10 2 -28 0 -40z m-734 -15 c-7 -2 -21 -2 -30 0 -10 3 -4 5
12 5 17 0 24 -2 18 -5z m414 -45 c-2 -13 -4 -5 -4 17 -1 22 1 32 4 23 2 -10 2
-28 0 -40z m330 -210 c-1 -46 -3 -11 -3 77 0 88 2 125 3 83 2 -42 2 -114 0
-160z m-320 -20 c-2 -35 -3 -9 -3 57 0 66 1 94 3 63 2 -32 2 -86 0 -120z m310
-130 c-2 -13 -4 -3 -4 22 0 25 2 35 4 23 2 -13 2 -33 0 -45z m711 39 c6 0 12
-4 12 -8 0 -10 -125 -10 -160 -1 -21 6 -16 8 25 13 28 4 64 4 80 2 17 -3 36
-5 43 -6z m49 -23 c-3 -3 -12 -4 -19 -1 -8 3 -5 6 6 6 11 1 17 -2 13 -5z m36
-38 c147 -72 219 -254 173 -436 -19 -75 -80 -208 -128 -278 -107 -157 -304
-304 -503 -374 -120 -43 -196 -53 -390 -52 -157 1 -334 20 -351 37 -2 2 1 50
7 106 l12 102 61 31 c90 45 174 103 238 166 l58 56 119 -3 c254 -6 416 43 546
165 44 41 51 50 25 34 -103 -64 -253 -120 -322 -120 -15 0 -37 9 -48 20 -11
11 -25 20 -30 20 -15 0 -98 79 -105 100 -3 11 8 42 29 77 19 32 49 95 66 139
37 94 43 101 127 155 137 90 302 111 416 55z m-1116 -33 c-3 -10 -5 -2 -5 17
0 19 2 27 5 18 2 -10 2 -26 0 -35z m1188 35 c5 4 5 1 1 -6 -5 -9 -12 -9 -27
-2 -10 6 -19 13 -19 16 0 2 8 0 19 -5 10 -6 22 -7 26 -3z m-878 -45 c-3 -10
-5 -4 -5 12 0 17 2 24 5 18 2 -7 2 -21 0 -30z m-322 -88 c-4 -25 -9 -44 -12
-41 -2 2 -1 25 2 51 4 25 9 44 12 41 2 -2 1 -25 -2 -51z m312 23 c-3 -7 -5 -2
-5 12 0 14 2 19 5 13 2 -7 2 -19 0 -25z m973 -9 c15 -28 5 -23 -15 7 -9 15
-12 23 -6 20 6 -4 16 -16 21 -27z m-1303 -101 c-3 -7 -5 -2 -5 12 0 14 2 19 5
13 2 -7 2 -19 0 -25z m-10 -40 c-3 -8 -6 -5 -6 6 -1 11 2 17 5 13 3 -3 4 -12
1 -19z m1380 -20 c-3 -8 -6 -5 -6 6 -1 11 2 17 5 13 3 -3 4 -12 1 -19z m-1390
-20 c-3 -8 -6 -5 -6 6 -1 11 2 17 5 13 3 -3 4 -12 1 -19z m292 -47 c-6 -18
-13 -30 -15 -28 -2 2 1 18 7 36 6 18 13 30 15 28 2 -2 -1 -18 -7 -36z m-3079
-73 c66 -91 254 -278 341 -339 102 -72 255 -154 363 -196 115 -45 120 -52 113
-163 -9 -134 -52 -198 -160 -238 -174 -65 -580 -49 -759 31 -96 43 -112 109
-54 221 l35 66 -25 72 c-61 180 -72 413 -25 511 27 56 75 107 101 107 11 0 38
-28 70 -72z m4177 25 c-3 -10 -5 -4 -5 12 0 17 2 24 5 18 2 -7 2 -21 0 -30z
m-1717 1 c104 -31 180 -96 229 -196 56 -114 57 -170 6 -548 -25 -188 -33 -216
-65 -243 -90 -76 -470 -106 -778 -62 -187 27 -217 83 -132 242 34 63 40 87 55
200 33 264 60 335 164 446 48 50 83 77 136 103 143 68 280 89 385 58z m591
-21 c-12 -20 -14 -14 -5 12 4 9 9 14 11 11 3 -2 0 -13 -6 -23z m282 -125 c14
-15 37 -30 51 -34 57 -14 20 -24 -89 -24 -94 0 -117 -3 -121 -15 -4 -8 -11
-15 -16 -15 -6 0 9 21 33 48 24 26 55 64 69 84 l24 37 12 -27 c6 -15 23 -39
37 -54z m-612 49 c-10 -9 -11 -8 -5 6 3 10 9 15 12 12 3 -3 0 -11 -7 -18z
m1410 -14 c-12 -20 -14 -14 -5 12 4 9 9 14 11 11 3 -2 0 -13 -6 -23z m-1140
-50 c-10 -21 -27 -47 -35 -58 -9 -11 -2 8 16 42 18 34 34 60 36 58 2 -2 -6
-20 -17 -42z m735 32 c-11 -8 -25 -15 -30 -15 -6 1 0 7 14 15 32 19 40 18 16
0z m385 -32 c-12 -20 -14 -14 -5 12 4 9 9 14 11 11 3 -2 0 -13 -6 -23z m-1187
-110 c-30 -46 -98 -123 -124 -140 -14 -9 -1 8 29 38 29 30 65 71 79 92 13 20
27 37 29 37 3 0 -3 -12 -13 -27z m1126 -13 c-6 -11 -13 -20 -16 -20 -2 0 0 9
6 20 6 11 13 20 16 20 2 0 0 -9 -6 -20z m6 -28 c-17 -16 -18 -16 -5 5 7 12 15
20 18 17 3 -2 -3 -12 -13 -22z m-4247 -172 c0 -9 -4 -8 -9 5 -5 11 -9 27 -9
35 0 9 4 8 9 -5 5 -11 9 -27 9 -35z m4071 -4 c0 -2 -8 -10 -17 -17 -16 -13
-17 -12 -4 4 13 16 21 21 21 13z m-2113 -53 c-3 -10 -5 -4 -5 12 0 17 2 24 5
18 2 -7 2 -21 0 -30z m970 -65 c-3 -8 -6 -5 -6 6 -1 11 2 17 5 13 3 -3 4 -12
1 -19z m-980 -20 c-3 -7 -5 -2 -5 12 0 14 2 19 5 13 2 -7 2 -19 0 -25z m-900
-35 c-3 -10 -5 -4 -5 12 0 17 2 24 5 18 2 -7 2 -21 0 -30z m0 -90 c-3 -10 -5
-4 -5 12 0 17 2 24 5 18 2 -7 2 -21 0 -30z m1860 5 c-3 -8 -6 -5 -6 6 -1 11 2
17 5 13 3 -3 4 -12 1 -19z m-1026 -41 c-10 -9 -11 -8 -5 6 3 10 9 15 12 12 3
-3 0 -11 -7 -18z m1362 16 c-7 -2 -21 -2 -30 0 -10 3 -4 5 12 5 17 0 24 -2 18
-5z m190 0 c-13 -2 -33 -2 -45 0 -13 2 -3 4 22 4 25 0 35 -2 23 -4z m-536 -35
c-3 -8 -6 -5 -6 6 -1 11 2 17 5 13 3 -3 4 -12 1 -19z m-1050 -130 c-3 -7 -5
-2 -5 12 0 14 2 19 5 13 2 -7 2 -19 0 -25z m-1730 -24 c-3 -3 -12 -4 -19 -1
-8 3 -5 6 6 6 11 1 17 -2 13 -5z m78 -24 c13 -5 14 -9 5 -9 -8 0 -24 4 -35 9
-13 5 -14 9 -5 9 8 0 24 -4 35 -9z m60 -19 c-5 -9 7 -12 85 -24 14 -3 7 -4
-15 -4 -22 -1 -53 2 -69 6 -35 7 -47 31 -16 31 12 0 19 -4 15 -9z m2412 -67
c-3 -3 -12 -4 -19 -1 -8 3 -5 6 6 6 11 1 17 -2 13 -5z m-520 -10 c-3 -3 -12
-4 -19 -1 -8 3 -5 6 6 6 11 1 17 -2 13 -5z m451 -1 c-10 -2 -26 -2 -35 0 -10
3 -2 5 17 5 19 0 27 -2 18 -5z m-188 -14 c0 -5 3 -8 8 -6 4 3 16 1 27 -4 12
-4 -23 -7 -85 -6 -63 0 -81 2 -45 4 33 2 64 8 70 14 12 12 25 12 25 -2z m170
-5 c0 -2 -26 -3 -57 -3 -49 1 -53 3 -23 8 33 6 80 3 80 -5z m-412 -1 c-10 -2
-28 -2 -40 0 -13 2 -5 4 17 4 22 1 32 -1 23 -4z m70 0 c-10 -2 -26 -2 -35 0
-10 3 -2 5 17 5 19 0 27 -2 18 -5z"/>
<path d="M5784 7105 c-27 -70 83 -206 205 -255 67 -26 204 -39 226 -20 23 19
19 49 -7 54 -13 3 -50 10 -83 17 -103 20 -206 84 -271 169 -39 51 -60 62 -70
35z m40 -21 c5 -14 4 -15 -9 -4 -17 14 -19 20 -6 20 5 0 12 -7 15 -16z m380
-212 c2 -4 -13 -6 -35 -4 -21 2 -39 6 -39 8 0 7 69 4 74 -4z"/>
<path d="M4205 7081 c-3 -6 -3 -16 1 -23 4 -6 3 -8 -3 -5 -6 4 -21 -5 -34 -19
-48 -53 -142 -117 -217 -149 -64 -28 -77 -38 -77 -57 0 -21 4 -23 55 -22 31 0
80 10 111 22 62 25 143 88 133 104 -4 7 -2 8 4 4 7 -4 24 11 42 36 23 32 30
51 28 78 -3 35 -29 53 -43 31z m34 -34 c0 -21 -1 -21 -9 -2 -12 28 -12 37 0
30 6 -3 10 -16 9 -28z m-49 -21 c0 -2 -8 -10 -17 -17 -16 -13 -17 -12 -4 4 13
16 21 21 21 13z m-70 -60 c0 -2 -8 -10 -17 -17 -16 -13 -17 -12 -4 4 13 16 21
21 21 13z m20 -60 c0 -2 -8 -10 -17 -17 -16 -13 -17 -12 -4 4 13 16 21 21 21
13z m-185 -46 c-22 -10 -44 -18 -50 -18 -5 0 8 8 30 19 22 10 45 18 50 18 6 0
-8 -9 -30 -19z m-14 -37 c36 5 39 4 19 -4 -32 -13 -72 -8 -77 11 -4 12 -3 13
5 1 7 -10 22 -12 53 -8z"/>
<path d="M5145 5125 c-132 -42 -198 -46 -273 -16 -66 26 -112 27 -160 1 -44
-23 -106 -75 -79 -66 10 3 48 14 83 23 65 17 66 17 132 -6 93 -34 160 -31 300
13 128 40 128 40 195 -27 44 -44 58 -38 33 15 -26 54 -59 88 -91 93 -19 3 -71
-8 -140 -30z"/>
<path d="M5091 8414 c0 -11 3 -14 6 -6 3 7 2 16 -1 19 -3 4 -6 -2 -5 -13z"/>
<path d="M7341 6554 c0 -11 3 -14 6 -6 3 7 2 16 -1 19 -3 4 -6 -2 -5 -13z"/>
<path d="M7351 6504 c0 -11 3 -14 6 -6 3 7 2 16 -1 19 -3 4 -6 -2 -5 -13z"/>
<path d="M7361 5684 c0 -11 3 -14 6 -6 3 7 2 16 -1 19 -3 4 -6 -2 -5 -13z"/>
<path d="M5668 3553 c7 -3 16 -2 19 1 4 3 -2 6 -13 5 -11 0 -14 -3 -6 -6z"/>
<path d="M4920 2300 c18 -34 112 -142 118 -136 3 4 -4 15 -16 26 -12 12 -40
45 -63 75 -42 56 -58 70 -39 35z"/>
<path d="M4940 2317 c0 -11 94 -125 121 -146 54 -42 39 -18 -42 67 -43 46 -79
81 -79 79z"/>
<path d="M3966 1980 c-52 -70 -63 -100 -47 -127 9 -15 10 -13 11 14 0 21 15
54 46 98 58 86 50 97 -10 15z"/>
<path d="M4207 1921 c-43 -53 -52 -80 -41 -118 7 -27 8 -26 14 14 3 23 21 65
38 94 18 28 31 53 30 54 -2 1 -20 -18 -41 -44z"/>
<path d="M5837 1872 c-20 -20 -43 -54 -52 -74 -18 -44 -18 -48 -5 -48 6 0 10
5 10 11 0 6 21 40 46 76 25 35 44 66 42 68 -2 3 -21 -12 -41 -33z"/>
<path d="M6118 1836 c-53 -51 -78 -101 -63 -126 11 -18 23 -11 23 15 0 28 18
60 69 116 53 59 35 56 -29 -5z"/>
<path d="M5400 8465 c-1 -27 -2 -28 -11 -10 -8 17 -9 17 -4 -5 2 -14 5 -41 6
-60 l2 -35 7 35 c7 34 7 33 9 -15 2 -27 6 -70 11 -95 7 -33 8 -22 4 45 -3 50
-9 108 -14 130 -7 36 -8 37 -10 10z"/>
<path d="M4377 1703 c18 -2 50 -2 70 0 21 2 7 4 -32 4 -38 0 -55 -2 -38 -4z"/>
</g>
</svg>
