<?xml version="1.0" standalone="no"?>
<!DOCTYPE svg PUBLIC "-//W3C//DTD SVG 20010904//EN"
 "http://www.w3.org/TR/2001/REC-SVG-20010904/DTD/svg10.dtd">
<svg version="1.0" xmlns="http://www.w3.org/2000/svg"
 width="1080.000000pt" height="1080.000000pt" viewBox="0 0 1080.000000 1080.000000"
 preserveAspectRatio="xMidYMid meet">

<g transform="translate(0.000000,1080.000000) scale(0.100000,-0.100000)"
fill="#000000" stroke="none">
<path d="M5285 9152 c-120 -74 -224 -289 -225 -464 0 -32 -4 -58 -9 -58 -5 0
-25 20 -45 44 -50 61 -149 126 -193 126 -30 0 -36 -5 -49 -37 -27 -64 -1 -185
61 -283 18 -29 22 -42 13 -44 -7 -3 -49 -12 -92 -21 -229 -49 -506 -172 -706
-315 -523 -372 -823 -1019 -797 -1715 3 -82 11 -182 17 -222 11 -67 9 -79 -20
-198 -30 -118 -32 -137 -28 -254 6 -161 33 -249 116 -376 146 -222 426 -419
755 -530 64 -22 117 -43 117 -46 0 -3 -22 -16 -50 -29 -309 -145 -753 -657
-811 -935 -17 -83 -1 -119 54 -123 l37 -3 0 -55 c0 -45 4 -59 25 -79 31 -32
94 -36 144 -10 22 11 29 10 54 -9 50 -37 166 -26 308 29 14 5 17 -9 22 -102 7
-117 26 -241 58 -371 l21 -82 -36 -83 c-63 -148 -81 -234 -80 -387 0 -116 4
-147 27 -222 l27 -87 -35 -73 c-60 -124 -47 -164 68 -206 96 -36 192 -45 414
-39 222 6 315 20 393 60 60 30 76 65 95 211 8 66 17 121 19 123 2 2 55 -6 117
-18 98 -19 153 -23 383 -25 l269 -2 18 -70 18 -70 -24 -58 c-31 -74 -33 -144
-5 -169 35 -32 118 -47 297 -52 292 -10 521 23 584 83 37 35 35 30 53 213 9
85 18 156 21 159 3 3 31 -7 62 -23 193 -94 390 -116 632 -70 368 71 684 363
772 714 28 112 23 276 -11 364 -70 184 -235 287 -440 274 -93 -5 -147 -23
-228 -74 -29 -18 -56 -33 -60 -33 -5 0 -1 31 9 69 61 239 45 568 -38 811 -85
248 -260 487 -476 648 -68 51 -85 68 -75 77 7 6 53 45 102 85 366 306 535 699
536 1245 0 187 -18 360 -61 570 -35 178 -80 315 -151 468 -99 214 -204 363
-370 523 -277 268 -659 452 -1085 524 -40 6 -73 15 -73 19 0 4 12 23 26 42 40
52 102 186 109 234 15 100 -53 137 -156 84 -58 -29 -163 -132 -214 -210 -25
-38 -49 -69 -54 -69 -4 0 -18 46 -31 103 -18 79 -24 145 -27 292 -3 105 -9
198 -14 208 -12 22 -46 22 -84 -1z m55 -182 c0 -76 5 -174 11 -217 10 -74 64
-307 76 -326 3 -5 15 14 28 41 61 132 179 270 268 315 69 35 87 29 87 -29 0
-66 -33 -140 -104 -234 -35 -47 -62 -88 -60 -91 2 -3 38 -9 81 -13 140 -11
456 -103 627 -180 492 -224 820 -633 985 -1228 61 -218 75 -336 75 -618 0
-216 -4 -272 -22 -370 -92 -502 -387 -873 -883 -1110 -114 -54 -354 -138 -415
-144 -22 -3 -84 -14 -140 -25 -235 -46 -362 -56 -714 -56 -290 1 -358 4 -505
23 -192 26 -379 65 -541 113 -60 18 -125 33 -144 34 -21 1 -103 36 -208 89
l-173 87 -140 141 c-155 157 -203 225 -242 353 -48 153 -45 314 9 475 23 68
24 80 14 135 -18 96 -24 434 -11 570 84 838 670 1500 1478 1671 62 13 126 24
142 24 l28 0 -33 36 c-47 49 -87 111 -108 163 -19 48 -24 147 -8 163 38 38
163 -68 266 -226 38 -58 71 -104 73 -102 2 1 -4 38 -12 82 -30 158 -13 335 42
436 49 89 139 177 166 161 4 -2 7 -67 7 -143z m1607 -4108 c60 -48 144 -138
210 -227 55 -73 163 -278 163 -308 0 -33 -100 -230 -168 -331 l-67 -100 -7 39
c-41 231 -65 316 -124 440 -29 62 -132 219 -190 290 l-33 41 33 31 c17 18 52
61 76 97 25 36 48 66 52 66 3 0 28 -17 55 -38z m-2609 -133 c26 -7 49 -13 50
-15 2 -1 -18 -30 -45 -63 -104 -130 -226 -390 -283 -606 -30 -114 -70 -336
-70 -392 0 -40 -36 -68 -122 -94 -68 -21 -168 -25 -186 -7 -7 7 -12 28 -12 47
l0 35 -32 -31 c-61 -57 -120 -70 -153 -33 -15 16 -17 31 -12 82 3 35 9 74 13
88 l8 25 -33 -28 c-36 -30 -63 -34 -81 -12 -19 23 2 91 65 215 149 290 513
659 757 767 84 38 76 36 136 22z m1952 -15 c90 -32 129 -54 213 -123 291 -234
486 -600 523 -978 12 -124 -10 -152 -70 -90 l-32 32 1 -80 c0 -151 -52 -175
-171 -79 l-41 33 -6 -40 c-13 -99 -59 -112 -183 -50 -238 119 -452 456 -520
816 -24 131 -16 314 19 413 40 116 94 171 169 172 15 0 59 -12 98 -26z m-1679
-33 c241 -33 373 -42 644 -42 271 0 408 9 635 42 74 10 138 19 142 19 4 0 -1
-15 -12 -32 -11 -18 -30 -64 -43 -103 -19 -61 -22 -91 -22 -235 1 -146 4 -178
28 -274 84 -335 302 -656 520 -768 l39 -19 -6 -57 c-4 -31 -9 -73 -12 -92 -2
-19 -1 -28 3 -20 3 8 14 22 24 30 10 10 20 38 24 74 l8 58 37 -5 c50 -6 94 14
110 52 7 17 14 31 16 31 2 0 72 -39 82 -46 2 -1 -15 -74 -37 -161 -43 -168
-73 -333 -70 -386 2 -42 -32 -210 -41 -200 -4 4 -17 41 -30 81 -12 40 -38 98
-56 129 -19 30 -34 57 -34 60 0 13 -83 77 -135 103 -117 59 -217 59 -340 1
-220 -104 -365 -323 -365 -552 l0 -77 -32 -8 c-18 -4 -116 -7 -218 -7 -213 0
-362 21 -565 80 -332 96 -633 320 -754 562 -66 132 -119 349 -128 521 -14 277
67 636 207 928 80 165 207 352 230 337 3 -2 71 -13 151 -24z m2126 -83 c127
-139 222 -333 268 -548 30 -142 27 -149 -19 -40 -79 189 -202 383 -323 511
l-54 57 38 31 c21 17 40 31 44 31 4 0 24 -19 46 -42z m658 -542 c20 -139 20
-244 -2 -276 -49 -74 -129 -134 -231 -174 -74 -29 -72 -32 -72 107 l0 102 65
80 c90 112 132 186 163 289 l27 90 17 -57 c9 -31 24 -104 33 -161z m407 -557
c144 -31 250 -126 298 -270 27 -79 30 -222 7 -320 -68 -285 -352 -572 -659
-667 -91 -29 -255 -45 -361 -37 -112 8 -200 33 -311 86 l-89 43 7 74 c3 40 8
78 11 83 3 5 46 29 95 54 104 54 194 133 286 250 56 73 69 84 102 88 20 3 45
7 54 9 12 2 31 -14 56 -47 44 -59 93 -88 173 -105 184 -39 359 90 359 264 0
41 -21 99 -41 111 -9 6 -10 4 -3 -6 5 -8 14 -30 21 -49 10 -28 10 -36 -1 -42
-8 -4 -17 -25 -21 -45 -21 -113 -108 -190 -227 -200 -144 -14 -285 115 -291
265 -3 73 82 260 148 327 79 80 203 136 317 144 9 0 41 -4 70 -10z m-952 -509
c0 -5 -2 -10 -4 -10 -3 0 -8 5 -11 10 -3 6 -1 10 4 10 6 0 11 -4 11 -10z m390
-33 c0 -14 -34 -37 -55 -37 -7 0 15 53 27 68 9 11 13 11 19 0 5 -7 9 -21 9
-31z m-375 -66 c-10 -43 -53 -131 -64 -131 -16 0 -23 96 -11 154 l11 56 35
-27 c29 -22 34 -31 29 -52z m-2728 -43 c59 -100 168 -218 282 -304 90 -69 270
-162 405 -210 l78 -27 -6 -66 c-4 -36 -13 -98 -21 -136 -17 -80 -47 -116 -112
-135 -86 -24 -246 -41 -398 -42 -170 -1 -277 18 -349 60 -27 16 -31 24 -30 60
0 24 13 67 32 104 l30 63 -26 75 c-22 63 -26 97 -29 215 -4 124 -2 151 20 235
24 90 61 190 71 190 3 0 26 -37 53 -82z m2255 42 c107 -40 172 -129 223 -305
30 -105 31 -160 6 -424 -18 -195 -18 -195 -49 -222 -37 -33 -179 -69 -302 -76
-47 -3 -106 -7 -131 -10 -50 -5 -295 22 -347 38 -21 7 -34 19 -38 34 -7 27 16
104 44 150 18 29 18 31 0 72 -29 66 -41 187 -29 289 23 186 140 347 316 433
114 56 199 62 307 21z m1121 -137 c-7 -2 -19 -2 -25 0 -7 3 -2 5 12 5 14 0 19
-2 13 -5z"/>
<path d="M4389 7038 c-4 -22 -2 -128 3 -128 14 0 38 45 38 72 0 14 -7 34 -16
42 -14 15 -23 20 -25 14z"/>
<path d="M5590 7011 c-5 -11 -10 -28 -10 -39 0 -20 35 -71 42 -62 8 10 -4 120
-13 120 -4 0 -13 -9 -19 -19z"/>
<path d="M4250 6930 c-79 -123 -269 -237 -475 -286 -116 -27 -147 -43 -127
-67 9 -10 5 -28 -13 -73 -48 -119 -50 -297 -5 -415 42 -111 58 -100 40 29 -21
145 -1 302 51 405 17 33 24 37 57 37 20 0 52 4 70 9 18 6 32 7 30 3 -24 -47
-48 -107 -59 -152 -16 -67 -17 -239 0 -297 10 -38 15 -43 40 -43 16 0 56 -9
90 -20 l61 -19 74 29 c97 39 168 41 221 5 20 -15 39 -24 41 -22 13 12 34 153
34 222 0 187 -51 359 -144 481 -7 8 2 26 27 55 40 46 61 100 55 139 -6 43 -33
35 -68 -20z m-7 -285 l20 -30 -34 31 c-19 18 -45 37 -58 44 -18 9 -21 14 -10
21 15 9 48 -17 82 -66z m2 -81 c35 -38 35 -115 0 -149 -55 -56 -135 -16 -135
67 0 95 79 143 135 82z m-207 -350 c41 -28 19 -94 -32 -94 -55 0 -73 80 -23
100 30 12 30 12 55 -6z"/>
<path d="M5694 6954 c-8 -33 22 -98 71 -153 l36 -40 -35 -49 c-44 -61 -78
-136 -102 -227 -26 -100 -26 -307 0 -392 l19 -62 29 29 c57 58 148 64 269 20
l81 -30 72 20 c40 11 84 20 98 20 22 0 27 6 37 44 26 105 5 308 -40 385 -11
18 -18 35 -16 37 1 2 35 0 74 -3 l72 -6 26 -58 c50 -113 67 -251 44 -374 -9
-47 -8 -60 4 -72 12 -12 17 -8 35 34 47 110 48 284 1 410 -12 32 -24 70 -26
85 -3 15 -10 31 -17 36 -6 5 -60 19 -121 31 -60 13 -146 36 -191 52 -152 55
-314 169 -359 253 -23 43 -52 47 -61 10z m179 -251 c4 -3 -7 -16 -23 -28 -16
-12 -43 -39 -60 -60 -44 -56 -37 -27 11 38 37 53 56 66 72 50z m32 -129 c23
-9 45 -57 45 -99 0 -47 -45 -95 -87 -95 -57 0 -95 70 -73 134 18 55 65 79 115
60z m226 -364 c37 -20 13 -100 -31 -100 -46 0 -72 58 -41 89 23 23 43 26 72
11z"/>
<path d="M5770 5957 c0 -20 181 -69 197 -54 11 12 -77 46 -135 53 -34 3 -62 4
-62 1z"/>
<path d="M4166 5935 c-21 -7 -44 -19 -50 -25 -16 -17 52 -5 107 20 41 18 41
19 12 19 -16 0 -47 -6 -69 -14z"/>
<path d="M4715 5870 c-10 -17 29 -75 51 -75 29 0 31 49 2 69 -26 18 -44 20
-53 6z"/>
<path d="M5272 5844 c-12 -8 -22 -26 -22 -40 0 -19 5 -24 24 -24 25 0 66 41
66 66 0 19 -40 18 -68 -2z"/>
<path d="M4822 5524 c-67 -18 -104 -37 -168 -86 -72 -54 -128 -138 -93 -138 6
0 41 28 77 61 123 115 239 148 372 104 86 -27 206 -93 259 -141 27 -24 54 -44
60 -44 27 0 7 41 -42 87 -68 64 -214 136 -319 157 -90 19 -79 19 -146 0z"/>
</g>
</svg>
