<?xml version="1.0" standalone="no"?>
<!DOCTYPE svg PUBLIC "-//W3C//DTD SVG 20010904//EN"
 "http://www.w3.org/TR/2001/REC-SVG-20010904/DTD/svg10.dtd">
<svg version="1.0" xmlns="http://www.w3.org/2000/svg"
 width="1080.000000pt" height="1080.000000pt" viewBox="0 0 1080.000000 1080.000000"
 preserveAspectRatio="xMidYMid meet">

<g transform="translate(0.000000,1080.000000) scale(0.100000,-0.100000)"
fill="#000000" stroke="none">
<path d="M5363 9191 c-99 -61 -190 -271 -208 -479 l-8 -82 -50 76 c-57 87
-167 208 -208 230 -66 34 -131 2 -144 -70 -10 -49 23 -151 79 -249 29 -50 40
-80 33 -82 -7 -2 -53 -11 -103 -20 -128 -21 -341 -86 -478 -144 -458 -197
-798 -520 -1017 -966 -155 -318 -209 -572 -208 -985 0 -113 4 -238 8 -279 7
-53 5 -95 -6 -155 -22 -125 -20 -312 6 -421 42 -177 174 -374 334 -501 134
-106 366 -229 530 -281 l28 -8 -78 -67 c-125 -107 -263 -269 -405 -478 -208
-305 -310 -547 -325 -770 -7 -117 6 -156 66 -196 36 -23 45 -25 67 -15 14 6
26 11 28 11 2 0 9 -20 15 -45 6 -25 24 -59 39 -77 24 -26 37 -32 84 -36 67 -5
123 11 144 43 13 20 20 22 40 14 36 -13 71 -11 104 6 l29 15 6 -48 c9 -63 51
-267 67 -320 11 -40 10 -50 -25 -155 -54 -164 -61 -206 -61 -372 0 -154 8
-202 45 -286 l21 -46 -27 -53 c-15 -29 -29 -76 -32 -105 -5 -47 -3 -55 26 -87
23 -26 48 -41 98 -56 121 -38 192 -46 418 -46 176 -1 237 3 304 17 98 21 159
48 183 82 28 38 49 132 54 245 3 75 8 105 17 104 6 -1 73 -13 147 -27 184 -35
387 -50 622 -45 l196 3 11 -55 c10 -50 8 -62 -19 -140 -35 -101 -38 -148 -10
-183 51 -65 237 -93 554 -84 291 8 418 41 457 117 26 50 47 138 67 276 l17
122 65 -33 c299 -150 688 -164 998 -37 172 71 376 235 481 386 62 90 117 206
136 290 20 83 19 238 -1 307 -55 187 -204 322 -401 364 -120 26 -213 15 -320
-34 -83 -39 -144 -98 -186 -179 -45 -88 -61 -157 -55 -248 5 -81 44 -174 94
-228 30 -32 31 -30 -46 -71 -89 -46 -153 -58 -286 -53 -68 2 -126 7 -130 10
-3 4 21 38 54 77 244 283 392 687 392 1072 0 270 -58 514 -181 764 -78 157
-168 283 -306 426 l-113 116 48 34 c73 52 207 185 261 258 189 256 275 585
288 1101 17 688 -177 1216 -601 1635 -279 276 -692 477 -1076 524 -158 20
-162 21 -156 37 3 7 21 38 40 68 47 73 69 141 61 187 -10 57 -33 72 -103 67
-78 -5 -149 -47 -261 -153 -46 -44 -82 -72 -78 -63 17 46 29 203 24 303 -7
132 -20 179 -57 217 -34 33 -71 36 -117 9z m85 -116 c8 -24 13 -88 13 -165 -1
-117 -5 -173 -30 -344 -10 -72 -3 -106 24 -106 7 0 42 37 78 83 85 108 182
198 251 232 122 60 115 -6 -21 -213 -30 -46 -52 -89 -49 -97 4 -11 20 -13 74
-8 74 6 239 -10 342 -33 669 -153 1165 -605 1377 -1253 80 -247 105 -424 104
-741 0 -406 -56 -730 -163 -945 -223 -447 -686 -691 -1480 -780 -146 -16 -606
-35 -713 -29 -33 2 -141 6 -240 9 -466 14 -953 109 -1260 247 -343 153 -569
396 -626 672 -23 112 -24 215 -3 355 14 92 14 129 4 275 -35 484 50 894 262
1264 241 420 643 734 1130 882 153 47 341 82 413 78 44 -3 50 -1 53 18 2 12
-23 62 -59 119 -66 106 -109 199 -109 240 0 20 5 25 24 25 37 0 137 -117 230
-267 99 -158 104 -165 134 -161 l25 3 1 185 c2 172 4 191 29 265 14 44 42 107
62 140 62 104 100 120 123 50z m1697 -4265 c10 -11 16 -20 13 -20 -3 0 -13 9
-23 20 -10 11 -16 20 -13 20 3 0 13 -9 23 -20z m-323 -178 c236 -241 412 -640
449 -1014 12 -127 7 -302 -12 -406 -18 -97 -62 -162 -109 -162 -44 0 -64 32
-68 111 -3 50 -9 72 -19 76 -23 9 -34 -11 -48 -89 -14 -81 -40 -142 -75 -173
-16 -15 -36 -20 -75 -20 -90 0 -153 68 -154 168 -1 52 -24 48 -61 -12 -37 -59
-56 -68 -90 -43 -35 27 -49 76 -59 216 -7 99 -21 166 -74 371 -123 467 -150
703 -102 911 23 100 40 114 205 162 l135 40 40 -29 c23 -16 75 -64 117 -107z
m-2704 97 c26 -7 48 -13 50 -14 2 -2 -9 -20 -23 -41 -94 -137 -239 -500 -305
-763 -36 -143 -70 -369 -77 -508 -5 -112 -9 -138 -26 -159 -31 -40 -64 -48
-103 -25 l-33 20 -34 -34 c-99 -99 -207 -25 -207 142 0 39 -4 75 -10 78 -5 3
-22 -20 -37 -52 -20 -41 -34 -59 -50 -61 -78 -11 -57 252 38 477 130 307 466
757 673 902 76 54 77 54 144 38z m3123 -26 c13 -16 12 -17 -3 -4 -10 7 -18 15
-18 17 0 8 8 3 21 -13z m-2876 -27 c357 -60 674 -81 1105 -73 299 6 522 22
709 52 52 9 96 14 98 12 2 -2 -4 -31 -13 -63 -10 -37 -18 -115 -21 -209 -4
-128 -1 -174 21 -315 25 -159 42 -233 121 -535 23 -90 39 -179 45 -251 14
-189 34 -248 93 -284 34 -21 92 -26 116 -11 11 7 26 -4 58 -39 49 -55 118 -84
184 -78 48 4 49 -1 14 -111 -30 -96 -70 -187 -85 -196 -6 -4 -42 25 -83 67
-84 86 -152 123 -255 138 -85 12 -206 -1 -285 -30 -219 -82 -377 -349 -377
-639 l0 -64 -282 6 c-308 7 -369 13 -591 58 -347 70 -643 219 -824 414 -81 86
-173 225 -210 317 -52 126 -68 236 -68 463 0 234 12 331 70 570 56 229 134
443 236 647 68 135 98 180 118 174 9 -3 57 -12 106 -20z m3069 -272 c3 -8 2
-12 -4 -9 -6 3 -10 10 -10 16 0 14 7 11 14 -7z m173 -596 c-2 -13 -4 -5 -4 17
-1 22 1 32 4 23 2 -10 2 -28 0 -40z m10 -180 c-2 -18 -4 -4 -4 32 0 36 2 50 4
33 2 -18 2 -48 0 -65z m557 -383 c145 -38 244 -113 301 -228 110 -224 36 -508
-194 -743 -300 -308 -728 -403 -1161 -258 -58 19 -133 51 -167 70 l-63 35 0
64 0 64 76 47 c42 26 108 74 147 106 46 39 75 57 86 53 68 -27 251 -32 353
-10 59 12 192 69 225 97 8 6 25 6 50 -1 53 -15 157 -14 197 3 89 37 153 140
143 228 -6 50 -28 93 -54 102 -25 10 -27 0 -13 -58 11 -45 11 -61 0 -88 -61
-155 -234 -185 -342 -58 -63 72 -73 103 -73 215 0 91 3 106 31 165 17 36 46
80 65 98 98 97 250 134 393 97z m-1698 -536 c168 -31 290 -170 330 -376 29
-155 10 -440 -41 -611 -25 -82 -75 -102 -292 -122 -118 -10 -126 -6 -113 60
14 71 12 90 -9 90 -22 0 -51 -54 -58 -112 -3 -21 -10 -41 -15 -44 -5 -3 -52
-3 -104 1 l-95 7 3 76 c2 52 -1 76 -9 79 -15 5 -49 -60 -58 -111 l-8 -38 -41
6 c-72 11 -106 26 -112 50 -3 12 9 61 27 111 29 84 30 93 20 140 -7 27 -15 95
-18 150 -8 142 13 250 71 369 103 212 299 316 522 275z m-2540 -76 c50 -86
215 -254 314 -320 120 -79 236 -138 365 -184 66 -23 126 -47 134 -53 11 -8 12
-37 9 -136 -6 -153 -20 -194 -75 -217 -66 -27 -194 -44 -319 -41 l-119 3 2 63
c1 55 -1 62 -18 62 -21 0 -43 -38 -53 -94 l-7 -39 -67 7 c-88 9 -96 17 -76 81
16 53 11 99 -9 93 -10 -3 -67 -103 -79 -138 -5 -16 -96 18 -108 41 -13 23 2
94 31 150 l20 40 -26 74 c-46 134 -54 284 -24 460 10 56 56 215 63 215 2 0 21
-30 42 -67z"/>
<path d="M3887 6651 c-190 -6 -207 -10 -207 -46 0 -34 18 -38 144 -36 l125 2
0 -90 c-1 -137 29 -227 103 -307 52 -56 117 -79 200 -70 188 19 298 167 298
398 l0 79 63 -7 c75 -8 107 5 107 42 0 17 -8 27 -26 34 -26 10 -467 11 -807 1z"/>
<path d="M5947 6648 c-12 -9 -18 -23 -15 -39 3 -23 6 -24 99 -27 l96 -3 -5
-78 c-13 -229 113 -396 298 -395 121 1 213 63 267 180 30 65 47 171 38 238
l-6 49 111 -5 c100 -5 112 -4 120 12 13 25 2 50 -26 60 -13 5 -234 12 -491 16
-396 5 -471 4 -486 -8z"/>
<path d="M5042 5936 c-9 -20 -7 -27 12 -45 29 -28 40 -27 55 5 10 22 9 30 -5
45 -23 26 -49 24 -62 -5z"/>
<path d="M5546 5941 c-36 -39 5 -91 43 -57 24 21 27 46 9 64 -17 17 -32 15
-52 -7z"/>
<path d="M4896 5499 c-60 -5 -107 -14 -122 -24 -27 -18 -29 -24 -11 -48 11
-15 21 -16 92 -7 109 14 821 13 942 -1 88 -11 97 -10 109 6 17 23 7 44 -25 56
-64 25 -751 37 -985 18z"/>
</g>
</svg>
