<?xml version="1.0" standalone="no"?>
<!DOCTYPE svg PUBLIC "-//W3C//DTD SVG 20010904//EN"
 "http://www.w3.org/TR/2001/REC-SVG-20010904/DTD/svg10.dtd">
<svg version="1.0" xmlns="http://www.w3.org/2000/svg"
 width="1080.000000pt" height="1080.000000pt" viewBox="0 0 1080.000000 1080.000000"
 preserveAspectRatio="xMidYMid meet">

<g transform="translate(0.000000,1080.000000) scale(0.100000,-0.100000)"
fill="#000000" stroke="none">
<path d="M5323 8676 c-45 -20 -115 -97 -152 -166 -36 -68 -71 -194 -71 -257 0
-23 -4 -43 -10 -43 -5 0 -10 4 -10 8 0 18 -145 164 -186 188 -72 42 -114 15
-114 -75 0 -55 36 -187 65 -239 14 -24 25 -48 25 -52 0 -4 -19 -10 -42 -14
-186 -30 -502 -156 -683 -274 -371 -240 -651 -669 -730 -1119 -22 -131 -30
-359 -15 -488 16 -140 16 -136 -10 -225 -34 -111 -34 -315 -2 -420 63 -199
179 -343 400 -492 85 -57 243 -134 345 -167 37 -13 67 -24 67 -26 0 -1 -44
-28 -99 -59 -186 -105 -384 -261 -475 -374 -123 -152 -160 -291 -120 -445 22
-87 59 -153 113 -206 l47 -46 -18 -30 c-39 -62 1 -153 84 -194 77 -37 179 -36
269 3 12 5 19 -6 33 -51 10 -32 26 -73 36 -92 17 -34 17 -35 -17 -107 -51
-112 -68 -185 -68 -304 0 -116 17 -184 65 -256 l27 -41 -43 -45 c-66 -70 -70
-144 -11 -183 52 -33 180 -48 382 -42 202 5 286 17 347 48 47 24 89 108 114
229 10 47 19 87 20 89 2 1 49 -5 106 -15 109 -19 407 -26 503 -12 l50 8 22
-68 c18 -57 19 -69 8 -82 -22 -25 -55 -103 -55 -132 0 -41 19 -75 49 -87 115
-45 554 -45 701 1 74 22 99 64 130 213 9 44 19 79 21 79 2 -1 48 -16 101 -33
424 -135 847 -45 1122 239 95 98 153 191 192 305 23 67 28 97 28 190 1 127
-13 180 -73 272 -72 112 -179 166 -326 166 -105 0 -170 -22 -252 -83 l-51 -39
13 57 c40 175 45 463 11 617 -64 289 -207 524 -409 676 -45 34 -83 64 -84 68
-1 3 38 38 86 78 222 182 365 444 426 778 22 120 31 422 16 554 -49 446 -220
820 -506 1106 -280 281 -566 425 -925 465 -58 7 -115 15 -127 19 -22 6 -22 6
11 56 55 83 88 153 94 200 6 59 -8 75 -68 75 -66 0 -151 -45 -233 -124 -37
-35 -67 -60 -67 -56 0 4 10 51 22 106 14 66 21 137 22 211 1 98 -1 115 -20
140 -24 33 -56 38 -101 19z m60 -106 c11 -63 -1 -182 -34 -345 -16 -77 -29
-152 -29 -167 0 -60 38 -41 95 47 62 96 213 215 272 215 31 0 29 -15 -13 -100
-28 -55 -63 -100 -142 -181 l-104 -109 56 20 c31 10 66 26 77 34 12 8 35 13
53 11 462 -58 621 -115 903 -326 503 -378 759 -1142 611 -1829 -82 -384 -312
-678 -667 -855 -567 -282 -1626 -326 -2286 -95 -381 134 -631 346 -726 617
-31 89 -36 261 -11 388 17 88 19 127 14 321 -5 233 4 352 38 499 116 498 443
898 914 1115 104 48 239 91 395 126 l125 27 37 -21 c60 -35 63 -26 14 35 -26
31 -57 77 -69 102 -43 85 -73 204 -61 242 6 19 7 19 37 2 46 -27 129 -122 165
-188 18 -33 47 -83 65 -112 l33 -52 2 127 c2 215 48 355 147 454 58 59 78 59
89 -2z m1417 -3695 c13 -14 21 -25 18 -25 -2 0 -15 11 -28 25 -13 14 -21 25
-18 25 2 0 15 -11 28 -25z m-450 -131 c236 -157 411 -355 470 -534 27 -81 29
-213 5 -317 -27 -120 -109 -225 -220 -284 -25 -13 -45 -27 -45 -32 0 -4 12
-13 28 -19 15 -7 28 -13 30 -14 9 -6 -30 -73 -58 -99 -31 -29 -33 -29 -44 -11
-19 34 -54 66 -71 66 -13 0 -11 -6 8 -32 41 -56 41 -57 3 -73 -50 -21 -82 -19
-123 10 -41 27 -50 26 -33 -4 14 -27 2 -27 -85 0 -46 14 -77 31 -103 57 -58
58 -75 102 -70 186 6 120 56 201 198 320 l45 38 -51 -6 -50 -6 -70 72 c-81 85
-101 111 -143 195 -45 89 -61 146 -68 248 -6 96 11 230 30 242 7 4 75 23 152
43 120 32 143 35 160 23 11 -7 58 -38 105 -69z m526 54 l29 -33 -32 29 c-31
28 -38 36 -30 36 2 0 16 -15 33 -32z m-2544 -18 l37 -11 -62 -92 c-108 -162
-196 -346 -257 -537 -15 -47 -31 -84 -36 -84 -5 1 -18 20 -30 42 -19 35 -23
38 -27 21 -7 -26 8 -67 34 -95 19 -20 19 -23 3 -115 -16 -93 -16 -320 1 -361
15 -38 -113 -70 -194 -48 -53 14 -111 68 -111 102 1 28 20 55 56 79 l26 17
-55 36 c-151 96 -212 319 -133 481 58 118 191 253 366 374 79 55 327 201 339
201 3 0 23 -5 43 -10z m454 -76 c284 -32 674 -24 983 22 52 7 96 13 97 11 1
-1 -4 -33 -12 -72 -45 -232 36 -468 221 -649 l63 -61 -44 -50 c-97 -108 -135
-249 -100 -369 14 -46 29 -70 74 -116 48 -49 68 -61 126 -79 39 -12 96 -21
133 -21 l66 0 -6 -32 c-3 -18 -10 -46 -16 -62 l-11 -28 -46 42 c-203 187 -606
87 -740 -184 -33 -67 -36 -82 -41 -189 l-6 -116 -46 -8 c-90 -15 -369 -6 -495
16 -188 33 -409 114 -523 192 -220 149 -373 387 -414 638 -47 297 72 708 306
1056 l76 112 103 -18 c56 -10 170 -26 252 -35z m2145 29 c13 -16 12 -17 -3 -4
-10 7 -18 15 -18 17 0 8 8 3 21 -13z m93 -149 c3 -8 2 -12 -4 -9 -6 3 -10 10
-10 16 0 14 7 11 14 -7z m93 -296 c-3 -8 -6 -5 -6 6 -1 11 2 17 5 13 3 -3 4
-12 1 -19z m-36 -71 c-10 -9 -11 -8 -5 6 3 10 9 15 12 12 3 -3 0 -11 -7 -18z
m59 -37 c0 -5 -5 -10 -11 -10 -5 0 -7 5 -4 10 3 6 8 10 11 10 2 0 4 -4 4 -10z
m-40 -54 c0 -2 -8 -10 -17 -17 -16 -13 -17 -12 -4 4 13 16 21 21 21 13z m47
-163 c-2 -32 -3 -6 -3 57 0 63 1 89 3 58 2 -32 2 -84 0 -115z m-137 154 c0 -2
-15 -16 -32 -33 l-33 -29 29 33 c28 30 36 37 36 29z m50 -40 c0 -2 -15 -16
-32 -33 l-33 -29 29 33 c28 30 36 37 36 29z m-70 -61 c0 -2 -8 -10 -17 -17
-16 -13 -17 -12 -4 4 13 16 21 21 21 13z m-83 -48 c-3 -8 -6 -5 -6 6 -1 11 2
17 5 13 3 -3 4 -12 1 -19z m220 -200 c-3 -8 -6 -5 -6 6 -1 11 2 17 5 13 3 -3
4 -12 1 -19z m-260 -30 c-3 -7 -5 -2 -5 12 0 14 2 19 5 13 2 -7 2 -19 0 -25z
m240 -60 c-3 -8 -6 -5 -6 6 -1 11 2 17 5 13 3 -3 4 -12 1 -19z m447 7 c148
-39 245 -165 254 -330 5 -104 -16 -194 -74 -314 -95 -195 -315 -364 -560 -432
-56 -15 -120 -23 -220 -26 -163 -6 -279 9 -429 58 l-94 29 6 58 c2 31 6 68 7
82 2 20 11 26 52 37 79 19 224 98 289 157 l60 54 50 -21 c35 -14 82 -21 156
-25 224 -10 421 79 460 206 15 51 4 108 -26 138 -34 34 -49 31 -30 -6 32 -61
9 -147 -48 -185 -92 -60 -204 -23 -260 85 -26 49 -28 63 -25 131 7 125 67 218
179 274 87 45 162 53 253 30z m-707 -87 c-3 -8 -6 -5 -6 6 -1 11 2 17 5 13 3
-3 4 -12 1 -19z m-90 -70 c-3 -8 -6 -5 -6 6 -1 11 2 17 5 13 3 -3 4 -12 1 -19z
m70 -30 c-3 -8 -6 -5 -6 6 -1 11 2 17 5 13 3 -3 4 -12 1 -19z m267 -280 c22
-45 86 -105 121 -114 14 -3 25 -10 25 -14 0 -11 -119 -25 -188 -23 -51 2 -162
28 -162 39 0 3 28 44 63 92 34 48 71 106 82 129 l20 42 11 -57 c5 -31 18 -74
28 -94z m-413 79 c-10 -9 -11 -8 -5 6 3 10 9 15 12 12 3 -3 0 -11 -7 -18z
m-477 -56 c173 -85 221 -299 147 -656 -29 -142 -40 -174 -64 -189 -32 -21
-102 -35 -216 -42 l-100 -7 9 39 c5 21 7 40 6 42 -8 7 -46 -52 -46 -70 0 -17
-7 -19 -77 -16 -87 3 -85 1 -69 83 l8 40 -21 -19 c-12 -11 -24 -37 -28 -59
l-6 -39 -61 7 c-84 10 -106 20 -106 47 0 27 33 103 49 112 17 11 13 46 -14
152 -55 211 -19 380 102 482 157 130 341 165 487 93z m239 -31 c-3 -12 -8 -19
-11 -16 -5 6 5 36 12 36 2 0 2 -9 -1 -20z m-2284 -45 c109 -172 335 -332 581
-411 47 -15 86 -28 87 -28 1 -1 -4 -32 -12 -69 -19 -90 -53 -182 -76 -203 -28
-25 -120 -43 -263 -50 l-129 -7 6 24 c4 13 10 35 13 49 l5 25 -25 -28 c-14
-15 -26 -37 -26 -48 0 -17 -7 -19 -64 -19 -108 0 -115 10 -65 98 17 30 28 57
25 60 -11 10 -74 -67 -88 -107 l-13 -39 -35 12 c-31 10 -35 15 -33 45 1 36 28
70 80 102 l32 20 -39 60 c-60 93 -75 147 -75 269 0 94 4 116 34 203 19 53 37
97 40 97 3 -1 21 -25 40 -55z m2278 -127 c-3 -8 -6 -5 -6 6 -1 11 2 17 5 13 3
-3 4 -12 1 -19z m10 -40 c-3 -8 -6 -5 -6 6 -1 11 2 17 5 13 3 -3 4 -12 1 -19z
m63 -2 c0 -2 -8 -10 -17 -17 -16 -13 -17 -12 -4 4 13 16 21 21 21 13z m-39
-40 c15 9 10 -2 -6 -16 -13 -10 -15 -9 -14 11 0 13 3 18 6 11 2 -6 9 -10 14
-6z"/>
<path d="M3972 6854 c-28 -19 -27 -60 1 -58 11 1 46 -27 84 -67 36 -37 100
-96 143 -130 l76 -62 -45 -42 c-81 -76 -141 -236 -141 -373 1 -140 59 -267
146 -318 55 -32 134 -42 190 -24 57 19 137 100 170 173 39 85 46 233 16 318
l-20 57 36 -10 c40 -11 95 -3 128 19 31 20 72 106 80 168 l6 50 -40 -61 c-22
-33 -47 -64 -57 -67 -82 -32 -197 33 -505 288 -122 101 -202 155 -230 155 -9
0 -26 -7 -38 -16z m571 -516 c23 -27 22 -67 -5 -95 -29 -31 -71 -30 -97 3 -24
30 -26 43 -10 78 22 47 77 54 112 14z"/>
<path d="M6065 6730 c-300 -198 -502 -301 -599 -304 -44 -1 -51 2 -77 34 -16
19 -32 49 -35 67 -7 40 -20 42 -36 7 -9 -19 -9 -36 1 -72 17 -63 55 -110 108
-134 38 -17 53 -18 101 -10 32 6 58 9 60 8 1 -2 -4 -18 -12 -37 -52 -126 -14
-308 88 -417 102 -109 233 -136 359 -74 110 55 177 154 198 293 21 144 -37
332 -133 431 l-46 47 61 40 c60 39 61 40 90 23 50 -29 134 -128 170 -201 74
-148 73 -342 -2 -490 -24 -45 -16 -53 17 -18 32 34 70 125 83 201 20 119 -7
254 -74 369 -33 56 -116 148 -151 167 -15 7 -25 17 -24 22 2 4 30 30 62 57 47
40 65 49 84 44 15 -3 27 -1 33 8 13 20 11 27 -11 49 -15 15 -33 20 -69 20 -46
0 -61 -8 -246 -130z m-301 -381 c19 -15 26 -29 26 -56 0 -47 -24 -73 -67 -73
-98 0 -96 144 3 149 6 1 23 -8 38 -20z"/>
<path d="M4007 6600 c-125 -130 -172 -305 -133 -491 15 -70 54 -156 80 -178
11 -9 8 3 -9 42 -58 126 -60 303 -6 447 19 50 36 76 125 185 22 27 26 39 17
48 -8 8 -26 -4 -74 -53z"/>
<path d="M4871 5756 c-18 -21 12 -89 36 -84 25 4 29 55 7 79 -20 23 -28 24
-43 5z"/>
<path d="M5226 5755 c-9 -9 -16 -32 -16 -51 0 -27 4 -34 20 -34 24 0 42 32 38
67 -4 32 -20 39 -42 18z"/>
<path d="M5015 5520 c-171 -23 -348 -139 -400 -265 -17 -40 -10 -60 17 -50 9
4 36 32 60 64 52 66 135 125 228 160 89 33 246 35 333 3 86 -32 172 -87 254
-165 70 -67 103 -80 103 -43 0 29 -97 132 -175 185 -90 62 -151 88 -255 107
-83 15 -80 15 -165 4z"/>
</g>
</svg>
