<svg width="20" height="20" viewBox="0 0 20 20" fill="none" xmlns="http://www.w3.org/2000/svg">
<path d="M12.5425 1.13818C12.4108 1.13818 12.2768 1.1739 12.1541 1.25649L4.24112 6.42836H0.580409C0.383981 6.42836 0.223267 6.58908 0.223267 6.78551V13.2141C0.223267 13.4105 0.383981 13.5712 0.580409 13.5712H4.24112L12.1541 18.7431C12.2768 18.8235 12.413 18.8614 12.5425 18.8614C12.9152 18.8614 13.259 18.5645 13.259 18.1449V1.8547C13.259 1.43506 12.9152 1.13818 12.5425 1.13818ZM11.6518 16.4953L5.12059 12.2252L4.7188 11.9641H1.83041V8.03551H4.7188L5.11836 7.77434L11.6518 3.50426V16.4953ZM19.4197 9.19622H16.5626C16.3661 9.19622 16.2054 9.35693 16.2054 9.55336V10.4462C16.2054 10.6426 16.3661 10.8034 16.5626 10.8034H19.4197C19.6161 10.8034 19.7768 10.6426 19.7768 10.4462V9.55336C19.7768 9.35693 19.6161 9.19622 19.4197 9.19622ZM18.4844 15.04L16.0224 13.6181C15.9819 13.5949 15.9373 13.58 15.8911 13.5741C15.8448 13.5681 15.7979 13.5714 15.7529 13.5836C15.7079 13.5958 15.6658 13.6168 15.6289 13.6453C15.5921 13.6738 15.5612 13.7093 15.538 13.7498L15.0938 14.5199C14.9956 14.6895 15.0536 14.9083 15.2233 15.0065L17.6853 16.4284C17.7258 16.4515 17.7704 16.4665 17.8166 16.4724C17.8629 16.4783 17.9098 16.4751 17.9548 16.4628C17.9998 16.4506 18.0419 16.4296 18.0788 16.4011C18.1156 16.3726 18.1465 16.3371 18.1697 16.2967L18.6139 15.5266C18.7121 15.3569 18.6518 15.1382 18.4844 15.04ZM15.5358 6.24979C15.5589 6.29025 15.5898 6.32574 15.6267 6.35426C15.6636 6.38277 15.7057 6.40374 15.7507 6.41597C15.7957 6.4282 15.8426 6.43145 15.8888 6.42553C15.9351 6.41961 15.9797 6.40465 16.0201 6.38149L18.4822 4.95961C18.6518 4.8614 18.7099 4.64265 18.6117 4.47301L18.1697 3.70515C18.1465 3.66469 18.1156 3.6292 18.0788 3.60068C18.0419 3.57217 17.9998 3.5512 17.9548 3.53897C17.9098 3.52674 17.8629 3.52349 17.8166 3.52941C17.7704 3.53532 17.7258 3.55029 17.6853 3.57345L15.2233 4.99533C15.1417 5.04285 15.0824 5.12072 15.0581 5.21191C15.0338 5.3031 15.0467 5.40018 15.0938 5.48193L15.5358 6.24979Z" fill="#7C7C7C"/>
</svg>
